<?xml version="1.0" encoding="utf-8"?>
<!-- Generator: Adobe Illustrator 23.0.5, SVG Export Plug-In . SVG Version: 6.00 Build 0)  -->
<svg version="1.1" id="OBJECTS" xmlns="http://www.w3.org/2000/svg" xmlns:xlink="http://www.w3.org/1999/xlink" x="0px" y="0px"
	 viewBox="0 0 375.03 323.64" style="enable-background:new 0 0 375.03 323.64;" xml:space="preserve">
<style type="text/css">
	.st0{clip-path:url(#SVGID_2_);}
	.st1{opacity:0.25;fill:#9DCFF9;enable-background:new    ;}
	.st2{opacity:0.5;fill:#9DCFF9;enable-background:new    ;}
	.st3{opacity:0.5;}
	.st4{fill:#84C3F7;}
	.st5{opacity:0.75;fill:#9DCFF9;enable-background:new    ;}
	.st6{fill:#1D4259;}
	.st7{fill:#0F222C;}
	.st8{fill:#E8BF7C;}
	.st9{fill:#D0A569;}
	.st10{fill:#AB7A45;}
	.st11{fill:#D0A56B;}
	.st12{fill:#986E3E;}
	.st13{fill:#A87944;}
	.st14{fill:#FF524F;}
	.st15{fill:#F2F2F2;}
	.st16{fill:#CE3836;}
	.st17{fill:#222846;}
	.st18{fill:#1B3241;}
	.st19{fill:none;stroke:#E0E0E0;stroke-miterlimit:10;}
	.st20{fill:none;stroke:#FFFFFF;stroke-miterlimit:10;}
	.st21{fill:none;stroke:#FFFFFF;stroke-miterlimit:10;stroke-dasharray:4.0105,4.0105;}
	.st22{fill:none;stroke:#F2F2F2;stroke-miterlimit:10;}
</style>
<g>
	<g>
		<g>
			<defs>
				<polygon id="SVGID_1_" points="14.85,111.7 103.64,111.7 103.64,208.75 117.33,208.75 117.33,24.12 257.7,24.12 257.7,180.31 
					271.53,180.31 271.53,93.24 360.18,93.24 360.18,292.18 14.85,292.18 				"/>
			</defs>
			<clipPath id="SVGID_2_">
				<use xlink:href="#SVGID_1_"  style="overflow:visible;"/>
			</clipPath>
			<g class="st0">
				<rect x="262.67" y="149.09" class="st1" width="73.5" height="143.09"/>
				<polygon class="st1" points="225.95,94.88 225.95,80.58 191.18,80.58 191.18,94.88 178.17,94.88 178.17,255.16 238.95,255.16 
					238.95,94.88 				"/>
				<rect x="32.73" y="154.77" class="st1" width="78.24" height="137.42"/>
				<polygon class="st1" points="260.14,94.88 247.14,94.88 247.14,255.16 307.92,255.16 307.92,61.86 				"/>
				<polygon class="st2" points="169.47,81.8 169.47,51.58 155.47,51.58 155.47,24.12 121.37,24.12 121.37,51.58 107.37,51.58 
					107.37,81.8 88.07,81.8 88.07,292.18 188.77,292.18 188.77,81.8 				"/>
				<g class="st3">
					<g>
						<g>
							<rect x="97.99" y="114.44" class="st4" width="10.68" height="7.75"/>
							<rect x="116.33" y="114.44" class="st4" width="10.69" height="7.75"/>
							<rect x="134.38" y="114.44" class="st4" width="10.68" height="7.75"/>
							<rect x="152.72" y="114.44" class="st4" width="10.68" height="7.75"/>
							<rect x="170.78" y="114.44" class="st4" width="10.68" height="7.75"/>
						</g>
						<g>
							<rect x="97.99" y="124.92" class="st4" width="10.68" height="7.75"/>
							<rect x="116.33" y="124.92" class="st4" width="10.69" height="7.75"/>
							<rect x="134.38" y="124.92" class="st4" width="10.68" height="7.75"/>
							<rect x="152.72" y="124.92" class="st4" width="10.68" height="7.75"/>
							<rect x="170.78" y="124.92" class="st4" width="10.68" height="7.75"/>
						</g>
						<g>
							<rect x="97.99" y="135.83" class="st4" width="10.68" height="7.75"/>
							<rect x="116.33" y="135.83" class="st4" width="10.69" height="7.75"/>
							<rect x="134.38" y="135.83" class="st4" width="10.68" height="7.75"/>
							<rect x="152.72" y="135.83" class="st4" width="10.68" height="7.75"/>
							<rect x="170.78" y="135.83" class="st4" width="10.68" height="7.75"/>
						</g>
					</g>
					<g>
						<g>
							<g>
								<g>
									<rect x="169.66" y="120.19" class="st4" width="12.92" height="2.01"/>
								</g>
								<g>
									<rect x="169.66" y="130.81" class="st4" width="12.92" height="1.87"/>
								</g>
								<g>
									<rect x="169.66" y="141.57" class="st4" width="12.92" height="2.01"/>
								</g>
							</g>
						</g>
						<g>
							<g>
								<g>
									<rect x="151.61" y="120.19" class="st4" width="12.92" height="2.01"/>
								</g>
								<g>
									<rect x="151.61" y="130.81" class="st4" width="12.92" height="1.87"/>
								</g>
								<g>
									<rect x="151.61" y="141.57" class="st4" width="12.92" height="2.01"/>
								</g>
							</g>
						</g>
						<g>
							<g>
								<g>
									<rect x="133.26" y="120.19" class="st4" width="12.92" height="2.01"/>
								</g>
								<g>
									<rect x="133.26" y="130.81" class="st4" width="12.92" height="1.87"/>
								</g>
								<g>
									<rect x="133.26" y="141.57" class="st4" width="12.92" height="2.01"/>
								</g>
							</g>
						</g>
						<g>
							<g>
								<g>
									<rect x="115.21" y="120.19" class="st4" width="12.92" height="2.01"/>
								</g>
								<g>
									<rect x="115.21" y="130.81" class="st4" width="12.92" height="1.87"/>
								</g>
								<g>
									<rect x="115.21" y="141.57" class="st4" width="12.92" height="2.01"/>
								</g>
							</g>
						</g>
						<g>
							<g>
								<g>
									<g>
										<rect x="96.87" y="120.19" class="st4" width="12.92" height="2.01"/>
									</g>
								</g>
								<g>
									<g>
										<rect x="96.87" y="130.81" class="st4" width="12.92" height="1.87"/>
									</g>
								</g>
								<g>
									<g>
										<rect x="96.87" y="141.57" class="st4" width="12.92" height="2.01"/>
									</g>
								</g>
							</g>
						</g>
					</g>
					<g>
						<g>
							<rect x="117.36" y="73.75" class="st4" width="9.81" height="7.11"/>
							<rect x="134.19" y="73.75" class="st4" width="9.81" height="7.11"/>
							<rect x="150.75" y="73.75" class="st4" width="9.81" height="7.11"/>
						</g>
						<g>
							<rect x="117.36" y="83.36" class="st4" width="9.81" height="7.11"/>
							<rect x="134.19" y="83.36" class="st4" width="9.81" height="7.11"/>
							<rect x="150.75" y="83.36" class="st4" width="9.81" height="7.11"/>
						</g>
						<g>
							<rect x="117.36" y="93.37" class="st4" width="9.81" height="7.11"/>
							<rect x="134.19" y="93.37" class="st4" width="9.81" height="7.11"/>
							<rect x="150.75" y="93.37" class="st4" width="9.81" height="7.11"/>
						</g>
					</g>
					<g>
						<g>
							<g>
								<g>
									<rect x="149.73" y="79.01" class="st4" width="11.86" height="1.85"/>
								</g>
								<g>
									<rect x="149.73" y="88.76" class="st4" width="11.86" height="1.71"/>
								</g>
								<g>
									<rect x="149.73" y="98.64" class="st4" width="11.86" height="1.84"/>
								</g>
							</g>
						</g>
						<g>
							<g>
								<g>
									<rect x="133.16" y="79.01" class="st4" width="11.86" height="1.85"/>
								</g>
								<g>
									<rect x="133.16" y="88.76" class="st4" width="11.86" height="1.71"/>
								</g>
								<g>
									<rect x="133.16" y="98.64" class="st4" width="11.86" height="1.84"/>
								</g>
							</g>
						</g>
						<g>
							<g>
								<g>
									<g>
										<rect x="116.33" y="79.01" class="st4" width="11.86" height="1.85"/>
									</g>
								</g>
								<g>
									<g>
										<rect x="116.33" y="88.76" class="st4" width="11.86" height="1.71"/>
									</g>
								</g>
								<g>
									<g>
										<rect x="116.33" y="98.64" class="st4" width="11.86" height="1.84"/>
									</g>
								</g>
							</g>
						</g>
					</g>
					<g>
						<g>
							<rect x="97.99" y="149.48" class="st4" width="10.68" height="7.75"/>
							<rect x="116.33" y="149.48" class="st4" width="10.69" height="7.75"/>
							<rect x="134.38" y="149.48" class="st4" width="10.68" height="7.75"/>
							<rect x="152.72" y="149.48" class="st4" width="10.68" height="7.75"/>
							<rect x="170.78" y="149.48" class="st4" width="10.68" height="7.75"/>
						</g>
						<g>
							<rect x="97.99" y="159.96" class="st4" width="10.68" height="7.75"/>
							<rect x="116.33" y="159.96" class="st4" width="10.69" height="7.75"/>
							<rect x="134.38" y="159.96" class="st4" width="10.68" height="7.75"/>
							<rect x="152.72" y="159.96" class="st4" width="10.68" height="7.75"/>
							<rect x="170.78" y="159.96" class="st4" width="10.68" height="7.75"/>
						</g>
						<g>
							<rect x="97.99" y="170.87" class="st4" width="10.68" height="7.75"/>
							<rect x="116.33" y="170.87" class="st4" width="10.69" height="7.75"/>
							<rect x="134.38" y="170.87" class="st4" width="10.68" height="7.75"/>
							<rect x="152.72" y="170.87" class="st4" width="10.68" height="7.75"/>
							<rect x="170.78" y="170.87" class="st4" width="10.68" height="7.75"/>
						</g>
					</g>
					<g>
						<g>
							<g>
								<g>
									<rect x="169.66" y="155.23" class="st4" width="12.92" height="2.01"/>
								</g>
								<g>
									<rect x="169.66" y="165.85" class="st4" width="12.92" height="1.87"/>
								</g>
								<g>
									<rect x="169.66" y="176.61" class="st4" width="12.92" height="2.01"/>
								</g>
							</g>
						</g>
						<g>
							<g>
								<g>
									<rect x="151.61" y="155.23" class="st4" width="12.92" height="2.01"/>
								</g>
								<g>
									<rect x="151.61" y="165.85" class="st4" width="12.92" height="1.87"/>
								</g>
								<g>
									<rect x="151.61" y="176.61" class="st4" width="12.92" height="2.01"/>
								</g>
							</g>
						</g>
						<g>
							<g>
								<g>
									<rect x="133.26" y="155.23" class="st4" width="12.92" height="2.01"/>
								</g>
								<g>
									<rect x="133.26" y="165.85" class="st4" width="12.92" height="1.87"/>
								</g>
								<g>
									<rect x="133.26" y="176.61" class="st4" width="12.92" height="2.01"/>
								</g>
							</g>
						</g>
						<g>
							<g>
								<g>
									<rect x="115.21" y="155.23" class="st4" width="12.92" height="2.01"/>
								</g>
								<g>
									<rect x="115.21" y="165.85" class="st4" width="12.92" height="1.87"/>
								</g>
								<g>
									<rect x="115.21" y="176.61" class="st4" width="12.92" height="2.01"/>
								</g>
							</g>
						</g>
						<g>
							<g>
								<g>
									<g>
										<rect x="96.87" y="155.23" class="st4" width="12.92" height="2.01"/>
									</g>
								</g>
								<g>
									<g>
										<rect x="96.87" y="165.85" class="st4" width="12.92" height="1.87"/>
									</g>
								</g>
								<g>
									<g>
										<rect x="96.87" y="176.61" class="st4" width="12.92" height="2.01"/>
									</g>
								</g>
							</g>
						</g>
					</g>
					<g>
						<g>
							<rect x="97.99" y="184.53" class="st4" width="10.68" height="7.75"/>
							<rect x="116.33" y="184.53" class="st4" width="10.69" height="7.75"/>
							<rect x="134.38" y="184.53" class="st4" width="10.68" height="7.75"/>
							<rect x="152.72" y="184.53" class="st4" width="10.68" height="7.75"/>
							<rect x="170.78" y="184.53" class="st4" width="10.68" height="7.75"/>
						</g>
						<g>
							<rect x="97.99" y="195.01" class="st4" width="10.68" height="7.75"/>
							<rect x="116.33" y="195.01" class="st4" width="10.69" height="7.75"/>
							<rect x="134.38" y="195.01" class="st4" width="10.68" height="7.75"/>
							<rect x="152.72" y="195.01" class="st4" width="10.68" height="7.75"/>
							<rect x="170.78" y="195.01" class="st4" width="10.68" height="7.75"/>
						</g>
						<g>
							<rect x="97.99" y="205.91" class="st4" width="10.68" height="7.75"/>
							<rect x="116.33" y="205.91" class="st4" width="10.69" height="7.75"/>
							<rect x="134.38" y="205.91" class="st4" width="10.68" height="7.75"/>
							<rect x="152.72" y="205.91" class="st4" width="10.68" height="7.75"/>
							<rect x="170.78" y="205.91" class="st4" width="10.68" height="7.75"/>
						</g>
					</g>
					<g>
						<g>
							<g>
								<g>
									<rect x="169.66" y="190.27" class="st4" width="12.92" height="2.01"/>
								</g>
								<g>
									<rect x="169.66" y="200.89" class="st4" width="12.92" height="1.87"/>
								</g>
								<g>
									<rect x="169.66" y="211.66" class="st4" width="12.92" height="2.01"/>
								</g>
							</g>
						</g>
						<g>
							<g>
								<g>
									<rect x="151.61" y="190.27" class="st4" width="12.92" height="2.01"/>
								</g>
								<g>
									<rect x="151.61" y="200.89" class="st4" width="12.92" height="1.87"/>
								</g>
								<g>
									<rect x="151.61" y="211.66" class="st4" width="12.92" height="2.01"/>
								</g>
							</g>
						</g>
						<g>
							<g>
								<g>
									<rect x="133.26" y="190.27" class="st4" width="12.92" height="2.01"/>
								</g>
								<g>
									<rect x="133.26" y="200.89" class="st4" width="12.92" height="1.87"/>
								</g>
								<g>
									<rect x="133.26" y="211.66" class="st4" width="12.92" height="2.01"/>
								</g>
							</g>
						</g>
						<g>
							<g>
								<g>
									<rect x="115.21" y="190.27" class="st4" width="12.92" height="2.01"/>
								</g>
								<g>
									<rect x="115.21" y="200.89" class="st4" width="12.92" height="1.87"/>
								</g>
								<g>
									<rect x="115.21" y="211.66" class="st4" width="12.92" height="2.01"/>
								</g>
							</g>
						</g>
						<g>
							<g>
								<g>
									<g>
										<rect x="96.87" y="190.27" class="st4" width="12.92" height="2.01"/>
									</g>
								</g>
								<g>
									<g>
										<rect x="96.87" y="200.89" class="st4" width="12.92" height="1.87"/>
									</g>
								</g>
								<g>
									<g>
										<rect x="96.87" y="211.66" class="st4" width="12.92" height="2.01"/>
									</g>
								</g>
							</g>
						</g>
					</g>
				</g>
				<rect x="205.66" y="114.73" class="st2" width="60.55" height="177.45"/>
				<g class="st3">
					<g>
						<g>
							<g>
								<g>
									<rect x="214.12" y="126.16" class="st4" width="11.76" height="4.94"/>
								</g>
								<g>
									<rect x="214.12" y="138.09" class="st4" width="11.76" height="4.94"/>
								</g>
								<g>
									<rect x="214.12" y="150.02" class="st4" width="11.76" height="4.94"/>
								</g>
								<g>
									<rect x="214.12" y="161.95" class="st4" width="11.76" height="4.94"/>
								</g>
								<g>
									<rect x="214.12" y="173.89" class="st4" width="11.76" height="4.94"/>
								</g>
								<g>
									<rect x="214.12" y="185.82" class="st4" width="11.76" height="4.94"/>
								</g>
								<g>
									<rect x="214.12" y="197.75" class="st4" width="11.76" height="4.94"/>
								</g>
								<g>
									<rect x="214.12" y="209.69" class="st4" width="11.76" height="4.94"/>
								</g>
								<g>
									<rect x="214.12" y="221.62" class="st4" width="11.76" height="4.94"/>
								</g>
							</g>
							<g>
								<g>
									<rect x="230.91" y="126.16" class="st4" width="11.76" height="4.94"/>
								</g>
								<g>
									<rect x="230.91" y="138.09" class="st4" width="11.76" height="4.94"/>
								</g>
								<g>
									<rect x="230.91" y="150.02" class="st4" width="11.76" height="4.94"/>
								</g>
								<g>
									<rect x="230.91" y="161.95" class="st4" width="11.76" height="4.94"/>
								</g>
								<g>
									<rect x="230.91" y="173.89" class="st4" width="11.76" height="4.94"/>
								</g>
								<g>
									<rect x="230.91" y="185.82" class="st4" width="11.76" height="4.94"/>
								</g>
								<g>
									<rect x="230.91" y="197.75" class="st4" width="11.76" height="4.94"/>
								</g>
								<g>
									<rect x="230.91" y="209.69" class="st4" width="11.76" height="4.94"/>
								</g>
								<g>
									<rect x="230.91" y="221.62" class="st4" width="11.76" height="4.94"/>
								</g>
							</g>
							<g>
								<g>
									<rect x="247.71" y="126.16" class="st4" width="11.76" height="4.94"/>
								</g>
								<g>
									<rect x="247.71" y="138.09" class="st4" width="11.76" height="4.94"/>
								</g>
								<g>
									<rect x="247.71" y="150.02" class="st4" width="11.76" height="4.94"/>
								</g>
								<g>
									<rect x="247.71" y="161.95" class="st4" width="11.76" height="4.94"/>
								</g>
								<g>
									<rect x="247.71" y="173.89" class="st4" width="11.76" height="4.94"/>
								</g>
								<g>
									<rect x="247.71" y="185.82" class="st4" width="11.76" height="4.94"/>
								</g>
								<g>
									<rect x="247.71" y="197.75" class="st4" width="11.76" height="4.94"/>
								</g>
								<g>
									<rect x="247.71" y="209.69" class="st4" width="11.76" height="4.94"/>
								</g>
								<g>
									<rect x="247.71" y="221.62" class="st4" width="11.76" height="4.94"/>
								</g>
							</g>
						</g>
						<g>
							<g>
								<g>
									<g>
										<rect x="214.12" y="126.16" class="st4" width="2.88" height="4.94"/>
									</g>
									<g>
										<rect x="214.12" y="138.09" class="st4" width="2.88" height="4.94"/>
									</g>
									<g>
										<rect x="214.12" y="150.02" class="st4" width="2.88" height="4.94"/>
									</g>
									<g>
										<rect x="214.12" y="161.95" class="st4" width="2.88" height="4.94"/>
									</g>
									<g>
										<rect x="214.12" y="173.89" class="st4" width="2.88" height="4.94"/>
									</g>
									<g>
										<rect x="214.12" y="185.82" class="st4" width="2.88" height="4.94"/>
									</g>
									<g>
										<rect x="214.12" y="197.75" class="st4" width="2.88" height="4.94"/>
									</g>
									<g>
										<rect x="214.12" y="209.69" class="st4" width="2.88" height="4.94"/>
									</g>
									<g>
										<rect x="214.12" y="221.62" class="st4" width="2.88" height="4.94"/>
									</g>
								</g>
								<g>
									<g>
										<rect x="230.91" y="126.16" class="st4" width="2.86" height="4.94"/>
									</g>
									<g>
										<rect x="230.91" y="138.09" class="st4" width="2.86" height="4.94"/>
									</g>
									<g>
										<rect x="230.91" y="150.02" class="st4" width="2.86" height="4.94"/>
									</g>
									<g>
										<rect x="230.91" y="161.95" class="st4" width="2.86" height="4.94"/>
									</g>
									<g>
										<rect x="230.91" y="173.89" class="st4" width="2.86" height="4.94"/>
									</g>
									<g>
										<rect x="230.91" y="185.82" class="st4" width="2.86" height="4.94"/>
									</g>
									<g>
										<rect x="230.91" y="197.75" class="st4" width="2.86" height="4.94"/>
									</g>
									<g>
										<rect x="230.91" y="209.69" class="st4" width="2.86" height="4.94"/>
									</g>
									<g>
										<rect x="230.91" y="221.62" class="st4" width="2.86" height="4.94"/>
									</g>
								</g>
								<g>
									<g>
										<rect x="247.71" y="126.16" class="st4" width="2.68" height="4.94"/>
									</g>
									<g>
										<rect x="247.71" y="138.09" class="st4" width="2.68" height="4.94"/>
									</g>
									<g>
										<rect x="247.71" y="150.02" class="st4" width="2.68" height="4.94"/>
									</g>
									<g>
										<rect x="247.71" y="161.95" class="st4" width="2.68" height="4.94"/>
									</g>
									<g>
										<rect x="247.71" y="173.89" class="st4" width="2.68" height="4.94"/>
									</g>
									<g>
										<rect x="247.71" y="185.82" class="st4" width="2.68" height="4.94"/>
									</g>
									<g>
										<rect x="247.71" y="197.75" class="st4" width="2.68" height="4.94"/>
									</g>
									<g>
										<rect x="247.71" y="209.69" class="st4" width="2.68" height="4.94"/>
									</g>
									<g>
										<rect x="247.71" y="221.62" class="st4" width="2.68" height="4.94"/>
									</g>
								</g>
							</g>
						</g>
					</g>
				</g>
				<rect x="289.12" y="180.08" class="st2" width="71.06" height="112.1"/>
				<g class="st3">
					<g>
						<g>
							<g>
								<rect x="303.37" y="196.7" class="st4" width="8.74" height="16.85"/>
							</g>
							<g>
								<rect x="303.37" y="221.68" class="st4" width="8.74" height="16.85"/>
							</g>
							<g>
								<rect x="303.37" y="246.66" class="st4" width="8.74" height="16.85"/>
							</g>
							<g>
								<rect x="303.37" y="271.63" class="st4" width="8.74" height="16.85"/>
							</g>
						</g>
						<g>
							<g>
								<rect x="321.36" y="196.7" class="st4" width="8.74" height="16.85"/>
							</g>
							<g>
								<rect x="321.36" y="221.68" class="st4" width="8.74" height="16.85"/>
							</g>
							<g>
								<rect x="321.36" y="246.66" class="st4" width="8.74" height="16.85"/>
							</g>
							<g>
								<rect x="321.36" y="271.63" class="st4" width="8.74" height="16.85"/>
							</g>
						</g>
						<g>
							<g>
								<rect x="339.36" y="196.7" class="st4" width="8.74" height="16.85"/>
							</g>
							<g>
								<rect x="339.36" y="221.68" class="st4" width="8.74" height="16.85"/>
							</g>
							<g>
								<rect x="339.36" y="246.66" class="st4" width="8.74" height="16.85"/>
							</g>
							<g>
								<rect x="339.36" y="271.63" class="st4" width="8.74" height="16.85"/>
							</g>
						</g>
					</g>
				</g>
				<polygon class="st2" points="84.67,203.28 14.85,203.28 14.85,209.39 16.5,209.39 16.5,292.18 82.42,292.18 82.42,209.39 
					84.67,209.39 				"/>
				<g class="st3">
					<rect x="28.43" y="225.7" class="st4" width="40.83" height="7.73"/>
					<rect x="28.43" y="237.16" class="st4" width="40.83" height="7.73"/>
					<rect x="28.43" y="248.62" class="st4" width="40.83" height="7.73"/>
					<rect x="28.43" y="260.07" class="st4" width="40.83" height="7.73"/>
					<rect x="28.43" y="282.99" class="st4" width="40.83" height="7.73"/>
					<rect x="28.43" y="271.53" class="st4" width="40.83" height="7.73"/>
					<rect x="26.46" y="224.74" class="st4" width="1.97" height="67.22"/>
					<rect x="68.27" y="224.97" class="st4" width="1.97" height="67.22"/>
				</g>
				<polygon class="st5" points="142.65,276.89 44.87,276.89 44.87,282.99 47.24,282.99 47.24,292.18 139.11,292.18 139.11,282.99 
					142.65,282.99 				"/>
				<polygon class="st2" points="251.55,241.34 251.55,185.63 188.5,185.63 188.5,241.34 162.61,241.34 162.61,292.18 
					277.44,292.18 277.44,241.34 				"/>
				<g class="st3">
					<g>
						<g>
							<rect x="176.13" y="257.88" class="st4" width="87.79" height="11.81"/>
						</g>
						<g>
							<rect x="176.13" y="275.38" class="st4" width="87.79" height="11.81"/>
						</g>
						<g>
							<g>
								<rect x="199.91" y="194.52" class="st4" width="40.22" height="11.81"/>
							</g>
							<g>
								<rect x="199.91" y="212.03" class="st4" width="40.22" height="11.81"/>
							</g>
							<g>
								<rect x="199.91" y="229.53" class="st4" width="40.22" height="11.81"/>
							</g>
						</g>
						<g>
							<rect x="196.8" y="240.08" class="st4" width="46.65" height="2.51"/>
						</g>
						<g>
							<rect x="196.8" y="222.58" class="st4" width="46.65" height="2.51"/>
						</g>
						<g>
							<rect x="196.8" y="205.08" class="st4" width="46.65" height="2.51"/>
						</g>
					</g>
				</g>
				<rect x="239.44" y="254.57" class="st5" width="53.98" height="37.61"/>
			</g>
		</g>
	</g>
	<g>
		<path class="st6" d="M313.61,319.87c0,1.78-63.31,3.22-141.42,3.22c-78.1,0-110.77-1.44-110.77-3.22s32.67-3.22,110.77-3.22
			S313.61,318.1,313.61,319.87z"/>
		<path class="st7" d="M103.5,285.17c9.99,0,18.1,8.1,18.1,18.1c0,9.99-8.1,18.1-18.1,18.1h-5.02v-36.19h5.02V285.17z"/>
		<path class="st7" d="M197.97,285.17c9.99,0,18.1,8.1,18.1,18.1c0,9.99-8.1,18.1-18.1,18.1h-5.02v-36.19h5.02V285.17z"/>
		<path class="st7" d="M103.5,285.17c9.99,0,18.1,8.1,18.1,18.1c0,9.99-8.1,18.1-18.1,18.1h-5.02v-36.19h5.02V285.17z"/>
		<path class="st7" d="M119.64,299.89c0-9.99,8.1-18.1,18.1-18.1c9.99,0,18.1,8.1,18.1,18.1c0,9.99-8.1,18.1-18.1,18.1
			C127.74,317.99,119.64,309.88,119.64,299.89z"/>
		<path class="st7" d="M239.36,281.79c9.99,0,18.1,8.1,18.1,18.1c0,9.99-8.1,18.1-18.1,18.1h-5.02V281.8h5.02V281.79z"/>
		<path class="st7" d="M216.25,299.89c0-9.99,8.1-18.1,18.1-18.1c9.99,0,18.1,8.1,18.1,18.1c0,9.99-8.1,18.1-18.1,18.1
			C224.35,317.99,216.25,309.88,216.25,299.89z"/>
		<g>
			<rect x="192.96" y="185.03" class="st8" width="92.81" height="32.05"/>
			<rect x="155.83" y="217" class="st8" width="74.25" height="74.25"/>
			<rect x="155.83" y="248.41" class="st9" width="74.25" height="11.4"/>
			<rect x="185.21" y="248.42" class="st10" width="15.49" height="11.4"/>
			<rect x="187.26" y="217" class="st9" width="11.4" height="74.25"/>
			<rect x="230.07" y="217" class="st11" width="55.69" height="74.25"/>
			<rect x="230.08" y="248.42" class="st10" width="55.69" height="11.4"/>
			<rect x="249.95" y="248.42" class="st12" width="15.49" height="11.4"/>
			<polygon class="st13" points="230.08,217.08 285.76,217.08 313.61,189.4 257.92,189.4 			"/>
			<rect x="251.99" y="216.99" class="st10" width="11.4" height="74.25"/>
			<polygon class="st12" points="251.99,216.99 263.4,216.99 290.99,189.4 279.58,189.4 			"/>
			<polygon class="st11" points="230.08,216.99 155.83,216.99 127.99,189.15 202.23,189.15 			"/>
			<polygon class="st10" points="198.66,216.99 187.25,216.99 159.41,189.15 170.81,189.15 			"/>
		</g>
		<path class="st6" d="M65.62,303.27h164.46v-12.03H65.62c-2.32,0-4.2,1.88-4.2,4.2v3.63C61.42,301.39,63.3,303.27,65.62,303.27z"/>
		<path class="st14" d="M64.99,291.24h90.84v-74.25h-45.52c-8.89,0-17.19,4.41-22.17,11.77l-18.57,27.48
			c-2.99,4.42-4.59,9.64-4.59,14.98v20.02H64.99z"/>
		<path class="st15" d="M134.03,260.93v-35.58h-23.72c-6.12,0-11.82,3.03-15.24,8.1L76.5,260.93H134.03z"/>
		<rect x="144.89" y="217" class="st16" width="10.94" height="74.25"/>
		<path class="st7" d="M192.12,281.79c11.86,0,21.47,9.61,21.47,21.47h-42.95C170.64,291.41,180.26,281.79,192.12,281.79z"/>
		<path class="st7" d="M97.65,281.79c11.86,0,21.47,9.61,21.47,21.47H76.18C76.18,291.41,85.79,281.79,97.65,281.79z"/>
		<path class="st17" d="M174.86,303.27c0-9.99,8.1-18.1,18.1-18.1c9.99,0,18.1,8.1,18.1,18.1c0,9.99-8.1,18.1-18.1,18.1
			C182.96,321.36,174.86,313.26,174.86,303.27z"/>
		<ellipse class="st15" cx="192.97" cy="303.28" rx="8.9" ry="8.9"/>
		<circle class="st17" cx="98.49" cy="303.27" r="18.1"/>
		
			<ellipse transform="matrix(0.1597 -0.9872 0.9872 0.1597 -216.609 352.079)" class="st15" cx="98.5" cy="303.27" rx="8.9" ry="8.9"/>
		<rect x="230.07" y="278.11" class="st16" width="7.76" height="7.38"/>
		<rect x="222.32" y="278.11" class="st14" width="7.76" height="7.38"/>
		<rect x="278" y="278.11" class="st16" width="7.76" height="7.38"/>
		<g>
			<path class="st16" d="M125.02,267.8h6.34c1.47,0,2.66-1.19,2.66-2.66v-1.23h-11.67v1.23C122.35,266.6,123.55,267.8,125.02,267.8z
				"/>
			<path class="st17" d="M125.02,266.83h6.34c1.47,0,2.66-1.19,2.66-2.66v-0.26h-11.67v0.26
				C122.35,265.64,123.55,266.83,125.02,266.83z"/>
		</g>
		<path class="st15" d="M72.04,281.79c0-3.89-3.16-7.05-7.05-7.05v14.1C68.88,288.84,72.04,285.69,72.04,281.79z"/>
		<path class="st18" d="M285.76,291.24h-55.69c-1.97,0-3.57,1.6-3.57,3.57v4.88c0,1.97,1.6,3.57,3.57,3.57h55.69
			c1.97,0,3.57-1.6,3.57-3.57v-4.88C289.33,292.84,287.74,291.24,285.76,291.24z"/>
		<path class="st15" d="M236.51,297.25c0-1.41-1.14-2.55-2.55-2.55s-2.55,1.14-2.55,2.55c0,1.41,1.14,2.55,2.55,2.55
			C235.37,299.81,236.51,298.67,236.51,297.25z"/>
		<path class="st15" d="M240.91,297.25c0-0.71-0.57-1.28-1.28-1.28s-1.28,0.57-1.28,1.28s0.57,1.28,1.28,1.28
			S240.91,297.96,240.91,297.25z"/>
		<path class="st15" d="M279.33,297.25c0,1.41,1.14,2.55,2.55,2.55c1.41,0,2.55-1.14,2.55-2.55c0-1.41-1.14-2.55-2.55-2.55
			S279.33,295.84,279.33,297.25z"/>
		<path class="st15" d="M274.93,297.25c0,0.71,0.57,1.28,1.28,1.28s1.28-0.57,1.28-1.28s-0.57-1.28-1.28-1.28
			S274.93,296.55,274.93,297.25z"/>
	</g>
	<g>
		<g>
			<path class="st19" d="M271.53,170.75V12.84c0-6.79-5.5-12.29-12.29-12.29H115.78c-6.79,0-12.29,5.5-12.29,12.29v189.88"/>
			<polyline class="st19" points="117.33,202.72 117.33,24.12 257.7,24.12 257.7,170.75 			"/>
			<path class="st19" d="M157.69,12.34L157.69,12.34c0,1.51,1.22,2.73,2.73,2.73h54.17c1.51,0,2.73-1.22,2.73-2.73l0,0
				c0-1.51-1.22-2.73-2.73-2.73h-54.17C158.92,9.6,157.69,10.83,157.69,12.34z"/>
			<path class="st19" d="M232.03,12.34c0,1.51-1.22,2.73-2.73,2.73s-2.73-1.22-2.73-2.73s1.22-2.73,2.73-2.73
				C230.81,9.6,232.03,10.83,232.03,12.34z"/>
		</g>
		<g>
			<line class="st19" x1="374.01" y1="292.18" x2="374.01" y2="81.95"/>
			<path class="st19" d="M374.01,239.87V81.95c0-6.79-5.5-12.29-12.29-12.29h-75.96"/>
			<polyline class="st19" points="285.76,93.24 360.18,93.24 360.18,292.18 			"/>
			<path class="st19" d="M285.76,84.19h31.32c1.51,0,2.73-1.22,2.73-2.73l0,0c0-1.51-1.22-2.73-2.73-2.73h-31.32"/>
			<path class="st19" d="M334.51,81.45c0,1.51-1.22,2.73-2.73,2.73s-2.74-1.22-2.74-2.73s1.23-2.73,2.74-2.73
				C333.29,78.72,334.51,79.94,334.51,81.45z"/>
		</g>
		<g>
			<line class="st19" x1="1.01" y1="292.18" x2="1.01" y2="100.41"/>
			<path class="st19" d="M1.01,239.87V100.41c0-6.79,5.5-12.29,12.29-12.29h75.96"/>
			<polyline class="st19" points="89.26,111.7 14.85,111.7 14.85,292.18 			"/>
			<path class="st19" d="M89.26,102.65H57.95c-1.51,0-2.73-1.22-2.73-2.73l0,0c0-1.51,1.22-2.73,2.73-2.73h31.32"/>
			<path class="st19" d="M40.51,99.91c0,1.51,1.22,2.73,2.73,2.73s2.73-1.22,2.73-2.73s-1.22-2.73-2.73-2.73
				C41.74,97.18,40.51,98.4,40.51,99.91z"/>
		</g>
	</g>
	<g>
		<g>
			<g>
				<path class="st20" d="M313.61,154.77c0,0-0.4-0.59-1.17-1.62"/>
				<path class="st21" d="M309.94,150.01c-10.2-12.26-40.65-42.45-77.91-19.65c-45.97,28.13-42.05-33.18-69.05-33.18
					c-38.56,0-16.44,73.48-106.92,78.43"/>
				<path class="st20" d="M54.05,175.71c-0.66,0.03-1.33,0.05-2,0.07"/>
			</g>
		</g>
		<g>
			<path class="st6" d="M317.57,154.77c0-2.19-1.77-3.96-3.96-3.96s-3.96,1.77-3.96,3.96s1.77,3.96,3.96,3.96
				C315.8,158.73,317.57,156.96,317.57,154.77z"/>
			<path class="st14" d="M321.15,125.96c-4.16-4.17-10.92-4.17-15.08,0c-3.34,3.34-3.99,8.33-1.98,12.33h-0.01l0.04,0.07
				c0.17,0.33,0.35,0.65,0.56,0.97l8.93,15.44l8.93-15.44c0.21-0.31,0.39-0.64,0.56-0.97l0.04-0.07h-0.01
				C325.14,134.29,324.48,129.29,321.15,125.96z M313.61,138.53c-2.78,0-5.03-2.25-5.03-5.03s2.25-5.03,5.03-5.03
				s5.03,2.25,5.03,5.03C318.64,136.28,316.38,138.53,313.61,138.53z"/>
		</g>
		<g>
			<path class="st6" d="M163.37,97.18c0-2.19-1.77-3.96-3.96-3.96s-3.96,1.77-3.96,3.96s1.77,3.96,3.96,3.96
				C161.6,101.14,163.37,99.37,163.37,97.18z"/>
			<path class="st14" d="M166.95,68.37c-4.17-4.17-10.92-4.17-15.08,0c-3.34,3.34-3.99,8.33-1.98,12.33h-0.01l0.04,0.07
				c0.17,0.33,0.35,0.65,0.56,0.96l8.93,15.44l8.93-15.44c0.21-0.31,0.39-0.64,0.56-0.97l0.04-0.07h-0.01
				C170.94,76.7,170.29,71.7,166.95,68.37z M159.41,80.94c-2.78,0-5.03-2.25-5.03-5.03s2.25-5.03,5.03-5.03s5.03,2.25,5.03,5.03
				S162.19,80.94,159.41,80.94z"/>
		</g>
		<g>
			<path class="st6" d="M56.02,175.78c0-2.19-1.77-3.96-3.96-3.96s-3.96,1.77-3.96,3.96s1.77,3.96,3.96,3.96
				C54.24,179.75,56.02,177.97,56.02,175.78z"/>
			<path class="st14" d="M59.6,146.97c-4.17-4.16-10.92-4.16-15.08,0c-3.34,3.34-3.99,8.33-1.98,12.33h-0.01l0.04,0.07
				c0.17,0.33,0.35,0.65,0.56,0.96l8.93,15.44l8.93-15.44c0.21-0.31,0.39-0.64,0.56-0.97l0.04-0.07h-0.01
				C63.59,155.31,62.93,150.31,59.6,146.97z M52.06,159.55c-2.78,0-5.03-2.25-5.03-5.03s2.25-5.03,5.03-5.03s5.03,2.25,5.03,5.03
				C57.09,157.29,54.83,159.55,52.06,159.55z"/>
		</g>
	</g>
	<g>
		<g>
			<line class="st22" x1="312.96" y1="24.19" x2="312.96" y2="35.65"/>
			<line class="st22" x1="318.7" y1="29.92" x2="307.23" y2="29.92"/>
		</g>
		<g>
			<line class="st22" x1="333.99" y1="19.47" x2="333.99" y2="28.9"/>
			<line class="st22" x1="338.71" y1="24.19" x2="329.28" y2="24.19"/>
		</g>
		<g>
			<line class="st22" x1="326.13" y1="6.35" x2="326.13" y2="12.63"/>
			<line class="st22" x1="329.28" y1="9.49" x2="322.99" y2="9.49"/>
		</g>
		<g>
			<line class="st22" x1="318.7" y1="42.27" x2="318.7" y2="46.14"/>
			<line class="st22" x1="320.63" y1="44.2" x2="316.76" y2="44.2"/>
		</g>
	</g>
	<g>
		<g>
			<line class="st22" x1="333.7" y1="239.19" x2="322.23" y2="239.19"/>
			<line class="st22" x1="327.96" y1="244.93" x2="327.96" y2="233.46"/>
		</g>
		<g>
			<line class="st22" x1="334.25" y1="260.23" x2="327.96" y2="260.23"/>
			<line class="st22" x1="331.1" y1="263.37" x2="331.1" y2="257.08"/>
		</g>
		<g>
			<line class="st22" x1="313.02" y1="246.87" x2="309.15" y2="246.87"/>
			<line class="st22" x1="311.09" y1="248.8" x2="311.09" y2="244.93"/>
		</g>
	</g>
	<g>
		<g>
			<line class="st22" x1="50.62" y1="245.46" x2="50.62" y2="233.99"/>
			<line class="st22" x1="44.88" y1="239.72" x2="56.35" y2="239.72"/>
		</g>
		<g>
			<line class="st22" x1="29.58" y1="246.01" x2="29.58" y2="239.72"/>
			<line class="st22" x1="26.44" y1="242.87" x2="32.73" y2="242.87"/>
		</g>
		<g>
			<line class="st22" x1="42.94" y1="224.79" x2="42.94" y2="220.91"/>
			<line class="st22" x1="41.01" y1="222.85" x2="44.88" y2="222.85"/>
		</g>
	</g>
	<g>
		<g>
			<line class="st22" x1="43.25" y1="44.52" x2="28.58" y2="44.52"/>
			<line class="st22" x1="35.91" y1="51.85" x2="35.91" y2="37.19"/>
		</g>
		<g>
			<line class="st22" x1="47.66" y1="65.25" x2="38.83" y2="65.25"/>
			<line class="st22" x1="43.25" y1="69.67" x2="43.25" y2="60.83"/>
		</g>
		<g>
			<line class="st22" x1="61.42" y1="57.69" x2="55.14" y2="57.69"/>
			<line class="st22" x1="58.28" y1="60.83" x2="58.28" y2="54.55"/>
		</g>
		<g>
			<line class="st22" x1="23.57" y1="57.69" x2="19.69" y2="57.69"/>
			<line class="st22" x1="21.63" y1="59.63" x2="21.63" y2="55.75"/>
		</g>
		<g>
			<line class="st22" x1="55.14" y1="38.24" x2="51.26" y2="38.24"/>
			<line class="st22" x1="53.2" y1="40.17" x2="53.2" y2="36.3"/>
		</g>
	</g>
</g>
</svg>
