<?xml version="1.0" encoding="utf-8"?>
<!-- Generator: Adobe Illustrator 23.0.5, SVG Export Plug-In . SVG Version: 6.00 Build 0)  -->
<svg version="1.1" id="Main" xmlns="http://www.w3.org/2000/svg" xmlns:xlink="http://www.w3.org/1999/xlink" x="0px" y="0px"
	 viewBox="0 0 438.9 357" style="enable-background:new 0 0 438.9 357;" xml:space="preserve">
<style type="text/css">
	.st0{opacity:0.5;}
	.st1{fill:#D4E6F3;}
	.st2{fill:#C5D7EB;}
	.st3{fill:#AABFDD;}
	.st4{fill:#B4C9E4;}
	.st5{fill:#D6E8F4;}
	.st6{fill:#BACEE7;}
	.st7{opacity:0.6;fill:#8FD1C5;}
	.st8{fill:#232121;}
	.st9{fill:#300901;}
	.st10{fill:#4F1109;}
	.st11{fill:#E8505B;}
	.st12{fill:#888888;}
	.st13{fill:#D84456;}
	.st14{opacity:0.63;}
	.st15{fill:#C3912C;}
	.st16{fill:#E4E4E4;}
	.st17{fill:#F18B2E;}
	.st18{fill:#C43B4C;}
	.st19{opacity:0.47;fill:#D58F34;}
	.st20{opacity:0.57;fill:#CC2027;}
	.st21{fill:#CA9785;}
	.st22{fill:#35150D;}
	.st23{fill:#FFFFFF;}
	.st24{fill:#86B8EA;}
	.st25{fill:#CAE7FF;}
	.st26{fill:#1E7CA5;}
	.st27{fill:#2D7A87;}
	.st28{fill:#FFB287;}
	.st29{fill:#F58D6C;}
	.st30{fill:#FFA969;}
	.st31{fill:#2BA1C1;}
	.st32{fill:#50CBD8;}
	.st33{fill:#FFB287;stroke:#FFFFFF;stroke-width:13.6329;stroke-linejoin:round;stroke-miterlimit:10;}
	.st34{fill:#3C95AA;}
	.st35{fill:#FFBB22;}
	.st36{opacity:0.4;fill:#C13329;}
	.st37{fill:#B9B6C6;}
	.st38{fill:#E8E1DF;}
	.st39{fill:#BCB2AF;}
	.st40{fill:#97B1B2;}
	.st41{fill:#97DEF4;}
	.st42{fill:#8E2B30;}
	.st43{fill:#BCB2AF;stroke:#87584E;stroke-width:7.0968;stroke-linecap:round;stroke-miterlimit:10;}
	.st44{fill:#D85365;}
	.st45{fill:#422B27;}
	.st46{fill:#667D7F;}
	.st47{fill:#C93C31;}
	.st48{fill:#AF3424;}
	.st49{fill:#5B6D6D;}
	.st50{fill:#6F4B50;}
	.st51{opacity:0.8;}
	.st52{fill:#B2C5CE;}
	.st53{fill:#CE4036;}
	.st54{fill:#E8882A;}
	.st55{fill:#C2D31E;}
	.st56{fill:#A0B718;}
	.st57{fill:#697227;}
	.st58{fill:#FFB236;}
	.st59{fill:#683C44;}
	.st60{fill:#5B4246;}
	.st61{fill:#FC4242;}
	.st62{fill:#8E3925;}
	.st63{fill:#994737;}
	.st64{fill:#E2775A;}
	.st65{fill:#602C34;}
	.st66{fill:#C13329;}
	.st67{fill:#B6B8BF;}
	.st68{opacity:0.6;}
	.st69{fill:#4C888E;}
	.st70{fill:#F8EBD9;}
	.st71{fill:#443135;}
	.st72{fill:#5B363B;}
	.st73{fill:#894434;}
	.st74{fill:#8E4939;}
	.st75{fill:#DCE523;}
	.st76{fill:#EF3535;}
	.st77{fill:#FFB839;}
	.st78{fill:#B26552;}
	.st79{opacity:0.4;fill:#5B363B;}
</style>
<g class="st0">
	<rect x="332.9" y="77.6" class="st1" width="63.4" height="148.4"/>
	<rect x="151" y="10.7" class="st1" width="58.8" height="268"/>
	<rect x="53.3" y="42.6" class="st1" width="67.3" height="239.9"/>
	<rect x="1.5" y="120.2" class="st1" width="53.8" height="139.1"/>
	<rect x="358.9" y="192.9" class="st2" width="28.9" height="85.7"/>
	<rect x="186.4" y="174.1" class="st2" width="53.6" height="139.3"/>
	<rect x="11.9" y="217" class="st2" width="30.1" height="70.9"/>
	<rect x="39.7" y="151.5" class="st2" width="53.8" height="139.1"/>
	<rect x="117.6" y="135.5" class="st2" width="48.6" height="152.6"/>
	<rect x="151" y="81" class="st2" width="15.2" height="62.5"/>
	<rect x="303.6" y="168.6" class="st2" width="55.3" height="152.4"/>
	<g>
		<g>
			<g>
				<g>
					<path class="st3" d="M108.1,121.5c-30.2,0-54.8,24.6-54.8,54.8c0,30.2,24.6,54.8,54.8,54.8c30.2,0,54.8-24.6,54.8-54.8
						C162.9,146.1,138.3,121.5,108.1,121.5z M108.1,229c-29.1,0-52.7-23.7-52.7-52.7c0-29.1,23.7-52.7,52.7-52.7
						c29.1,0,52.7,23.6,52.7,52.7C160.8,205.4,137.1,229,108.1,229z"/>
				</g>
			</g>
		</g>
		<g>
			<g>
				<path class="st3" d="M108,110.7c-36.2,0-65.7,29.5-65.7,65.7c0,36.2,29.5,65.7,65.7,65.7c36.2,0,65.7-29.5,65.7-65.7
					C173.8,140.2,144.3,110.7,108,110.7z M108,238.8c-34.4,0-62.4-28-62.4-62.4c0-34.4,28-62.4,62.4-62.4c34.4,0,62.4,28,62.4,62.4
					C170.5,210.8,142.5,238.8,108,238.8z"/>
			</g>
		</g>
		<g>
			<g>
				<path class="st3" d="M108.5,171.2V93.5h-1.1v77.7c0.2,0,0.3-0.1,0.6-0.1C108.3,171.1,108.5,171.1,108.5,171.2z"/>
			</g>
		</g>
		<g>
			<g>
				<path class="st3" d="M107.5,181.7v77.7h1.3v-77.7c-0.2,0-0.4,0.1-0.6,0.1C107.9,181.7,107.7,181.7,107.5,181.7z"/>
			</g>
		</g>
		<g>
			<g>
				<path class="st3" d="M102.8,175.8H25.1v1.3h77.6c0-0.2-0.1-0.4-0.1-0.7C102.7,176.2,102.8,176,102.8,175.8z"/>
			</g>
		</g>
		<g>
			<g>
				<path class="st3" d="M191.1,175.8h-77.8c0,0.2,0.1,0.4,0.1,0.7c0,0.2,0,0.4-0.1,0.6h77.8V175.8z"/>
			</g>
		</g>
		<g>
			<g>
				<path class="st3" d="M35.9,217.4l0.6,1.1l67.3-38.9c-0.2-0.3-0.5-0.7-0.6-1.1L35.9,217.4z"/>
			</g>
		</g>
		<g>
			<g>
				<path class="st3" d="M180.2,135.5l-0.6-1.1l-67.3,38.9c0.2,0.3,0.5,0.7,0.6,1.1L180.2,135.5z"/>
			</g>
		</g>
		<g>
			<g>
				<path class="st3" d="M150.1,248l-38.9-67.3c-0.3,0.2-0.7,0.5-1.1,0.6l38.9,67.3L150.1,248z"/>
			</g>
		</g>
		<g>
			<g>
				<path class="st3" d="M67.1,104.3l-1.1,0.6l38.9,67.3c0.3-0.2,0.7-0.5,1.1-0.6L67.1,104.3z"/>
			</g>
		</g>
		<g>
			<g>
				<path class="st3" d="M66,248l1.1,0.6l38.9-67.3c-0.4-0.2-0.7-0.4-1.1-0.6L66,248z"/>
			</g>
		</g>
		<g>
			<g>
				<path class="st3" d="M150.1,104.8l-1.1-0.6l-38.9,67.3c0.4,0.2,0.7,0.4,1.1,0.6L150.1,104.8z"/>
			</g>
		</g>
		<g>
			<g>
				<path class="st3" d="M180.2,217.4l-67.3-38.8c-0.2,0.4-0.4,0.7-0.6,1.1l67.3,38.9L180.2,217.4z"/>
			</g>
		</g>
		<g>
			<g>
				<path class="st3" d="M36.5,134.4l-0.6,1.1l67.3,38.9c0.2-0.4,0.4-0.7,0.6-1.1L36.5,134.4z"/>
			</g>
		</g>
		<g>
			<g>
				<path class="st3" d="M108,167.1c-5.1,0-9.3,4.2-9.3,9.3c0,5.1,4.2,9.3,9.3,9.3c5.1,0,9.3-4.2,9.3-9.3
					C117.3,171.3,113.2,167.1,108,167.1z M108,181.7c-2.9,0-5.3-2.4-5.3-5.3c0-2.9,2.4-5.3,5.3-5.3c2.9,0,5.3,2.4,5.3,5.3
					C113.4,179.4,111,181.7,108,181.7z"/>
			</g>
		</g>
		<g>
			<g>
				<g>
					<g>
						<path class="st3" d="M100.3,97.3l2.5,7.1c0,0.1,0.1,0.2,0.2,0.3c0.1,0.1,0.1,0.1,0.2,0.1c0.1,0,0.2,0.1,0.2,0.1
							c3.1,0,6.1,0,9.2,0c0.3,0,0.5-0.2,0.6-0.4l2.5-7.1c0.1-0.4-0.2-0.9-0.6-0.9h-14.2C100.5,96.4,100.1,96.9,100.3,97.3z"/>
					</g>
				</g>
			</g>
			<g>
				<g>
					<g>
						<path class="st3" d="M114.8,96.6l-1.1,0c0.1-2-0.6-3.8-1.9-5.2c-1-1.1-2.4-1.7-3.7-1.7c-1.4,0-2.7,0.6-3.7,1.7
							c-1.3,1.3-2,3.2-1.9,5.2l-1.1,0c-0.1-2.3,0.7-4.4,2.2-6c1.3-1.3,2.9-2,4.6-2c1.7,0,3.3,0.7,4.6,2
							C114.1,92.2,114.9,94.4,114.8,96.6z"/>
					</g>
				</g>
			</g>
		</g>
		<g>
			<g>
				<g>
					<g>
						<path class="st3" d="M141.9,108.2l2.5,7c0,0.1,0.1,0.2,0.2,0.3c0.1,0.1,0.1,0.1,0.2,0.1c0.1,0,0.2,0,0.2,0c3.1,0,6.1,0,9.2,0
							c0.3,0,0.5-0.2,0.6-0.4l2.5-7c0.1-0.4-0.2-0.8-0.6-0.8h-14.2C142.1,107.4,141.7,107.8,141.9,108.2z"/>
					</g>
				</g>
			</g>
			<g>
				<g>
					<g>
						<path class="st3" d="M156.4,107.5l-1.1,0c0.1-2-0.6-3.8-1.9-5.2c-1-1.1-2.4-1.7-3.8-1.7c-1.4,0-2.7,0.6-3.7,1.7
							c-1.3,1.3-2,3.2-1.9,5.2l-1.1,0c-0.1-2.3,0.7-4.4,2.2-6c1.3-1.3,2.9-2,4.6-2c1.7,0,3.3,0.7,4.6,2
							C155.7,103,156.5,105.2,156.4,107.5z"/>
					</g>
				</g>
			</g>
		</g>
		<g>
			<g>
				<g>
					<g>
						<path class="st3" d="M172,138.7l2.5,7.1c0,0.1,0.1,0.2,0.2,0.3c0.1,0.1,0.1,0.1,0.2,0.1c0.1,0,0.2,0.1,0.2,0.1
							c3.1,0,6.1,0,9.2,0c0.3,0,0.5-0.2,0.6-0.5l2.5-7.1c0.1-0.4-0.2-0.9-0.6-0.9h-14.2C172.2,137.8,171.9,138.3,172,138.7z"/>
					</g>
				</g>
			</g>
			<g>
				<g>
					<g>
						<path class="st3" d="M186.5,138l-1.1,0c0.1-2-0.6-3.8-1.9-5.2c-1-1.1-2.4-1.7-3.8-1.7c-1.4,0-2.7,0.6-3.8,1.7
							c-1.3,1.3-2,3.2-1.9,5.2l-1.1,0c-0.1-2.3,0.7-4.4,2.2-6c1.3-1.3,2.9-2,4.6-2c1.7,0,3.3,0.7,4.6,2
							C185.8,133.5,186.6,135.7,186.5,138z"/>
					</g>
				</g>
			</g>
		</g>
		<g>
			<g>
				<g>
					<g>
						<path class="st3" d="M183.3,180.1l2.5,7.1c0,0.1,0.1,0.2,0.2,0.3c0.1,0.1,0.1,0.1,0.2,0.1c0.1,0,0.2,0,0.2,0
							c3.1,0,6.1,0,9.2,0c0.3,0,0.5-0.2,0.6-0.4l2.5-7.1c0.1-0.4-0.2-0.9-0.6-0.9h-14.2C183.5,179.2,183.2,179.7,183.3,180.1z"/>
					</g>
				</g>
			</g>
			<g>
				<g>
					<g>
						<path class="st3" d="M197.8,179.4l-1.1,0c0.1-2-0.6-3.8-1.9-5.2c-1-1.1-2.4-1.7-3.7-1.7c-1.4,0-2.7,0.6-3.8,1.7
							c-1.3,1.3-2,3.2-1.9,5.2l-1.1,0c-0.1-2.3,0.7-4.4,2.2-6c1.3-1.3,2.9-2,4.6-2c1.7,0,3.3,0.7,4.6,2
							C197.1,175,197.9,177.2,197.8,179.4z"/>
					</g>
				</g>
			</g>
		</g>
		<g>
			<g>
				<g>
					<g>
						<path class="st3" d="M172,221.8l2.5,7c0,0.1,0.1,0.2,0.2,0.3c0.1,0.1,0.1,0.1,0.2,0.1c0.1,0,0.2,0,0.2,0c3.1,0,6.1,0,9.2,0
							c0.3,0,0.5-0.2,0.6-0.4l2.5-7c0.1-0.4-0.2-0.8-0.6-0.8h-14.2C172.2,221,171.9,221.4,172,221.8z"/>
					</g>
				</g>
			</g>
			<g>
				<g>
					<g>
						<path class="st3" d="M186.5,221.1l-1.1,0c0.1-2-0.6-3.8-1.9-5.2c-1-1.1-2.4-1.7-3.8-1.7c-1.4,0-2.7,0.6-3.8,1.7
							c-1.3,1.3-2,3.2-1.9,5.2l-1.1,0c-0.1-2.3,0.7-4.4,2.2-6c1.3-1.3,2.9-2,4.6-2c1.7,0,3.3,0.7,4.6,2
							C185.8,216.6,186.6,218.8,186.5,221.1z"/>
					</g>
				</g>
			</g>
		</g>
		<g>
			<g>
				<g>
					<g>
						<path class="st3" d="M141.8,251.8l2.5,7.1c0,0.1,0.1,0.2,0.2,0.3c0.1,0.1,0.1,0.1,0.2,0.1c0.1,0,0.2,0.1,0.2,0.1
							c3.1,0,6.1,0,9.2,0c0.3,0,0.5-0.2,0.6-0.5l2.5-7.1c0.1-0.4-0.2-0.9-0.6-0.9h-14.2C142,251,141.7,251.4,141.8,251.8z"/>
					</g>
				</g>
			</g>
			<g>
				<g>
					<g>
						<path class="st3" d="M156.4,251.1l-1.1,0c0.1-2-0.6-3.8-1.9-5.2c-1-1.1-2.4-1.7-3.7-1.7c-1.4,0-2.7,0.6-3.7,1.7
							c-1.3,1.3-2,3.2-1.9,5.2l-1.1,0c-0.1-2.3,0.7-4.4,2.2-6c1.3-1.3,2.9-2,4.6-2c1.7,0,3.3,0.7,4.6,2
							C155.6,246.7,156.4,248.9,156.4,251.1z"/>
					</g>
				</g>
			</g>
		</g>
		<g>
			<g>
				<g>
					<g>
						<path class="st3" d="M100.3,263.5l2.5,7.1c0,0.1,0.1,0.2,0.2,0.3c0.1,0.1,0.1,0.1,0.2,0.1c0.1,0,0.2,0,0.2,0
							c3.1,0,6.1,0,9.2,0c0.3,0,0.5-0.2,0.6-0.4l2.5-7.1c0.1-0.4-0.2-0.9-0.6-0.9h-14.2C100.5,262.6,100.2,263.1,100.3,263.5z"/>
					</g>
				</g>
			</g>
			<g>
				<g>
					<g>
						<path class="st3" d="M114.8,262.8l-1.1,0c0.1-2-0.6-3.8-1.9-5.2c-1-1.1-2.4-1.7-3.7-1.7c-1.4,0-2.7,0.6-3.8,1.7
							c-1.3,1.3-2,3.2-1.9,5.2l-1.1,0c-0.1-2.3,0.7-4.4,2.2-6c1.3-1.3,2.9-2,4.6-2s3.3,0.7,4.6,2
							C114.1,258.4,114.9,260.5,114.8,262.8z"/>
					</g>
				</g>
			</g>
		</g>
		<g>
			<g>
				<g>
					<g>
						<path class="st3" d="M58.9,252.5l2.5,7.1c0,0.1,0.1,0.2,0.2,0.3c0.1,0.1,0.1,0.1,0.2,0.1c0.1,0,0.2,0.1,0.2,0.1
							c3.1,0,6.1,0,9.2,0c0.3,0,0.5-0.2,0.6-0.5l2.5-7.1c0.1-0.4-0.2-0.9-0.6-0.9H59.5C59,251.6,58.7,252.1,58.9,252.5z"/>
					</g>
				</g>
			</g>
			<g>
				<g>
					<g>
						<path class="st3" d="M73.4,251.8l-1.1,0c0.1-2-0.6-3.8-1.9-5.2c-1-1.1-2.4-1.7-3.8-1.7c-1.4,0-2.7,0.6-3.7,1.7
							c-1.3,1.3-2,3.2-1.9,5.2l-1.1,0c-0.1-2.3,0.7-4.4,2.2-6c1.3-1.3,2.9-2,4.6-2c1.7,0,3.3,0.7,4.6,2
							C72.6,247.3,73.5,249.5,73.4,251.8z"/>
					</g>
				</g>
			</g>
		</g>
		<g>
			<g>
				<g>
					<g>
						<path class="st3" d="M28.5,222l2.5,7c0,0.1,0.1,0.2,0.2,0.3c0.1,0.1,0.1,0.1,0.2,0.1c0.1,0,0.2,0,0.2,0c3.1,0,6.1,0,9.2,0
							c0.3,0,0.5-0.2,0.6-0.4l2.5-7c0.1-0.4-0.2-0.8-0.6-0.8H29.1C28.6,221.2,28.3,221.6,28.5,222z"/>
					</g>
				</g>
			</g>
			<g>
				<g>
					<g>
						<path class="st3" d="M43,221.3l-1.1,0c0.1-2-0.6-3.8-1.9-5.2c-1-1.1-2.4-1.7-3.8-1.7c-1.4,0-2.7,0.6-3.7,1.7
							c-1.3,1.3-2,3.2-1.9,5.2l-1.1,0c-0.1-2.3,0.7-4.4,2.2-6c1.3-1.3,2.9-2,4.6-2c1.7,0,3.3,0.7,4.6,2
							C42.3,216.8,43.1,219,43,221.3z"/>
					</g>
				</g>
			</g>
		</g>
		<g>
			<g>
				<g>
					<g>
						<path class="st3" d="M17.3,180.4l2.5,7.1c0,0.1,0.1,0.2,0.2,0.3c0.1,0.1,0.1,0,0.2,0c0.1,0,0.2,0,0.2,0c3.1,0,6.1,0,9.2,0
							c0.3,0,0.5-0.1,0.6-0.4l2.5-7c0.1-0.4-0.2-0.8-0.6-0.8H17.9C17.5,179.6,17.2,180,17.3,180.4z"/>
					</g>
				</g>
			</g>
			<g>
				<g>
					<g>
						<path class="st3" d="M31.9,179.7l-1.1,0c0.1-2-0.6-3.8-1.9-5.2c-1-1.1-2.4-1.7-3.7-1.7c-1.4,0-2.7,0.6-3.8,1.7
							c-1.3,1.3-2,3.2-1.9,5.2l-1.1,0c-0.1-2.3,0.7-4.4,2.2-6c1.3-1.3,2.9-2,4.6-2c1.7,0,3.3,0.7,4.6,2
							C31.1,175.3,31.9,177.5,31.9,179.7z"/>
					</g>
				</g>
			</g>
		</g>
		<g>
			<g>
				<path class="st3" d="M151.6,248.2c0,1.1-0.9,2-2,2c-1.1,0-2-0.9-2-2c0-1.1,0.9-2,2-2C150.7,246.3,151.6,247.1,151.6,248.2z"/>
			</g>
		</g>
		<g>
			<g>
				<path class="st3" d="M181.7,218.1c0,1.1-0.9,2-2,2c-1.1,0-2-0.9-2-2s0.9-2,2-2C180.8,216.1,181.7,217,181.7,218.1z"/>
			</g>
		</g>
		<g>
			<g>
				<path class="st3" d="M192.9,176.4c0,1.1-0.9,2-2,2c-1.1,0-2-0.9-2-2c0-1.1,0.9-2,2-2C192,174.4,192.9,175.3,192.9,176.4z"/>
			</g>
		</g>
		<g>
			<g>
				<path class="st3" d="M181.7,135.1c0,1.1-0.9,2-2,2c-1.1,0-2-0.9-2-2c0-1.1,0.9-2,2-2C180.8,133.1,181.7,134,181.7,135.1z"/>
			</g>
		</g>
		<g>
			<g>
				<path class="st3" d="M151.6,104.5c0,1.1-0.9,2-2,2c-1.1,0-2-0.9-2-2c0-1.1,0.9-2,2-2C150.7,102.6,151.6,103.4,151.6,104.5z"/>
			</g>
		</g>
		<g>
			<g>
				<path class="st3" d="M110,93.4c0,1.1-0.9,2-2,2c-1.1,0-2-0.9-2-2c0-1.1,0.9-2,2-2C109.1,91.4,110,92.3,110,93.4z"/>
			</g>
		</g>
		<g>
			<g>
				<path class="st3" d="M68.6,104.6c0,1.1-0.9,2-2,2c-1.1,0-2-0.9-2-2c0-1.1,0.9-2,2-2C67.7,102.6,68.6,103.5,68.6,104.6z"/>
			</g>
		</g>
		<g>
			<g>
				<path class="st3" d="M38.1,134.9c0,1.1-0.9,2-2,2c-1.1,0-2-0.9-2-2c0-1.1,0.9-2,2-2C37.2,132.9,38.1,133.8,38.1,134.9z"/>
			</g>
		</g>
		<g>
			<g>
				<path class="st3" d="M27,176.5c0,1.1-0.9,2-2,2c-1.1,0-2-0.9-2-2c0-1.1,0.9-2,2-2C26.2,174.5,27,175.4,27,176.5z"/>
			</g>
		</g>
		<g>
			<g>
				<path class="st3" d="M38.2,218c0,1.1-0.9,2-2,2c-1.1,0-2-0.9-2-2c0-1.1,0.9-2,2-2C37.3,216,38.2,216.9,38.2,218z"/>
			</g>
		</g>
		<g>
			<g>
				<path class="st3" d="M68.6,248.3c0,1.1-0.9,2-2,2c-1.1,0-2-0.9-2-2c0-1.1,0.9-2,2-2C67.7,246.3,68.6,247.2,68.6,248.3z"/>
			</g>
		</g>
		<g>
			<g>
				<path class="st3" d="M110,259.4c0,1.1-0.9,2-2,2c-1.1,0-2-0.9-2-2c0-1.1,0.9-2,2-2C109.1,257.4,110,258.3,110,259.4z"/>
			</g>
		</g>
		<g>
			<g>
				<g>
					<g>
						<path class="st3" d="M28.4,138.9l2.5,7.1c0,0.1,0.1,0.2,0.2,0.3c0.1,0.1,0.1,0,0.2,0c0.1,0,0.2,0,0.2,0c3.1,0,6.1,0,9.2,0
							c0.3,0,0.5-0.1,0.6-0.4l2.5-7c0.1-0.4-0.2-0.8-0.6-0.8H29C28.6,138,28.3,138.5,28.4,138.9z"/>
					</g>
				</g>
			</g>
			<g>
				<g>
					<g>
						<path class="st3" d="M42.9,138.1l-1.1,0c0.1-2-0.6-3.8-1.9-5.2c-1-1.1-2.4-1.7-3.8-1.7c-1.4,0-2.7,0.6-3.7,1.7
							c-1.3,1.3-2,3.2-1.9,5.2l-1.1,0c-0.1-2.3,0.7-4.4,2.2-6c1.3-1.3,2.9-2,4.6-2c1.7,0,3.3,0.7,4.6,2
							C42.2,133.7,43,135.9,42.9,138.1z"/>
					</g>
				</g>
			</g>
		</g>
		<g>
			<g>
				<g>
					<g>
						<path class="st3" d="M58.9,108.1l2.5,7.1c0,0.1,0.1,0.2,0.2,0.3c0.1,0.1,0.1,0.1,0.2,0.1c0.1,0,0.2,0.1,0.2,0.1
							c3.1,0,6.1,0,9.2,0c0.3,0,0.5-0.2,0.6-0.4l2.5-7.1c0.1-0.4-0.2-0.9-0.6-0.9H59.5C59.1,107.2,58.8,107.7,58.9,108.1z"/>
					</g>
				</g>
			</g>
			<g>
				<g>
					<g>
						<path class="st3" d="M73.4,107.4l-1.1,0c0.1-2-0.6-3.8-1.9-5.2c-1-1.1-2.4-1.7-3.7-1.7c-1.4,0-2.7,0.6-3.8,1.7
							c-1.3,1.3-2,3.2-1.9,5.2l-1.1,0c-0.1-2.3,0.7-4.4,2.2-6c1.3-1.3,2.9-2,4.6-2c1.7,0,3.3,0.7,4.6,2
							C72.7,102.9,73.5,105.1,73.4,107.4z"/>
					</g>
				</g>
			</g>
		</g>
		<g>
			<g>
				<rect x="60.8" y="280.5" class="st3" width="94.4" height="10.3"/>
			</g>
		</g>
		<g>
			<path class="st3" d="M108.6,171.2l-0.6-2.1l-0.6,2.1c0.2,0,0.4-0.1,0.6-0.1C108.2,171.1,108.4,171.1,108.6,171.2z"/>
			<path class="st3" d="M140.4,286.7l-29.2-106c-0.9,0.7-2,1.1-3.2,1.1c-1.2,0-2.3-0.4-3.2-1.1l-29.3,106H140.4z M135,282.4H81
				l27.1-97.9L135,282.4z"/>
		</g>
	</g>
	<rect x="375.4" y="119.7" class="st3" width="54.9" height="172.1"/>
	<g>
		<rect x="412.3" y="274.2" class="st4" width="8.7" height="6.3"/>
		<rect x="384.7" y="274.2" class="st4" width="8.4" height="6.3"/>
		<rect x="384.7" y="256" class="st4" width="8.4" height="6.3"/>
		<rect x="412.3" y="256" class="st4" width="8.7" height="6.3"/>
		<rect x="412.3" y="237.9" class="st4" width="8.7" height="6.3"/>
		<rect x="384.7" y="237.9" class="st4" width="8.4" height="6.3"/>
		<rect x="384.7" y="219.7" class="st4" width="8.4" height="6.3"/>
		<rect x="412.3" y="219.7" class="st4" width="8.7" height="6.3"/>
		<rect x="412.3" y="201.6" class="st4" width="8.7" height="6.3"/>
		<rect x="384.7" y="201.6" class="st4" width="8.4" height="6.3"/>
		<rect x="412.3" y="183.4" class="st4" width="8.7" height="6.3"/>
		<rect x="384.7" y="183.4" class="st4" width="8.4" height="6.3"/>
		<rect x="384.7" y="165.3" class="st4" width="8.4" height="6.3"/>
		<rect x="412.3" y="165.3" class="st4" width="8.7" height="6.3"/>
		<rect x="412.3" y="147.1" class="st4" width="8.7" height="6.3"/>
		<rect x="384.7" y="147.1" class="st4" width="8.4" height="6.3"/>
		<rect x="412.3" y="128.9" class="st4" width="8.7" height="6.3"/>
		<rect x="384.7" y="128.9" class="st4" width="8.4" height="6.3"/>
	</g>
	<path class="st3" d="M309.3,95.1c0,0,0-0.2,0-0.2c-10.1-4.7-20.1-9.5-30.2-14.2c-9.9-4.7-19.9-9.5-29.8-14.2V95h-19.8v206.9h79.8
		L309.3,95.1z"/>
	<rect x="229.5" y="280.7" class="st5" width="60.6" height="7.6"/>
	<rect x="229.5" y="259" class="st6" width="60.6" height="7.6"/>
	<rect x="229.5" y="237.2" class="st6" width="60.6" height="7.6"/>
	<rect x="229.5" y="215.3" class="st6" width="60.6" height="7.6"/>
	<rect x="229.5" y="193.5" class="st4" width="60.6" height="7.6"/>
	<rect x="229.5" y="171.6" class="st4" width="60.6" height="7.6"/>
	<rect x="229.5" y="149.8" class="st4" width="65.9" height="7.6"/>
	<rect x="229.5" y="128.1" class="st4" width="60.6" height="7.6"/>
	<rect x="229.5" y="106.1" class="st4" width="60.6" height="7.6"/>
	<g>
		<rect x="298.6" y="280.7" class="st4" width="10.6" height="7.6"/>
		<rect x="298.6" y="258.6" class="st4" width="10.6" height="8"/>
		<rect x="298.6" y="237" class="st4" width="10.6" height="7.6"/>
		<rect x="298.6" y="215.1" class="st4" width="10.6" height="7.4"/>
		<rect x="298.6" y="192.9" class="st4" width="10.6" height="7.8"/>
		<rect x="298.6" y="171.2" class="st4" width="10.6" height="7.8"/>
		<rect x="298.6" y="149.4" class="st4" width="10.6" height="7.2"/>
		<rect x="298.6" y="127" class="st4" width="10.6" height="8"/>
		<rect x="298.6" y="105.3" class="st4" width="10.6" height="7.6"/>
	</g>
	<path class="st3" d="M237.1,25.1h-7.6v33.4V95h19.8V51.1C245.3,42.4,241.2,33.7,237.1,25.1z"/>
	<rect x="343.7" y="114" class="st2" width="15.2" height="62.5"/>
	<path class="st1" d="M60.9,0.2h-7.6v33.4v36.5h19.8V26.3C69.1,17.6,65,8.9,60.9,0.2z"/>
</g>
<g>
	<g>
		<g>
			<path class="st7" d="M174.3,265.4c0,0,12.6-27.4,19.6-29.2c7-1.7,78.8-6.1,91-1.7c12.2,4.4,40.1,27.9,37.9,32.7
				c-2.2,4.8-145.9,4.8-147.7,3.1C173.5,268.4,174.3,265.4,174.3,265.4z"/>
			<g>
				<path class="st8" d="M97.2,248.9c-1.1,2.8-9.8,17.3-4.7,21.5c5,4.2,7.3,2.2,7.3,2.2s-4.5,2-4.7,5c-0.3,3.1-2.5,12.6,1.4,14.5
					c3.9,2,8.6,1.4,8.6,1.4l-5.3-45.8L97.2,248.9z"/>
				<path class="st9" d="M121.2,291.5c1.2-2,13.7-8.9,14.3-13.4c0.6-4.5-6.8-39.3-9.1-43.5c-2.2-4.2-6.7-5.7-10.9-6.3
					c-4.2-0.6-17.8,1.1-17.8,6.7c0,0-0.8,8.2,0,30.8c0.8,22.6,2.4,26.3,6.1,28.7C111.4,299.6,120.3,292.9,121.2,291.5z"/>
				<path class="st10" d="M119.6,288.7c-3.7,2.8-9.9,1.8-12.7,0.6c-2.8-1.3-2.9-17-2.1-18c1-1.3,3.2-1.6,3.2-1.6s-2.3-0.1-3.3-0.9
					c-1-0.8-2.5-27.1-0.8-29.8c1.6-2.6,14.6-3.4,15.1,0.4c0.8,5.9,2,26.7,0.7,28.6c-1.1,1.6-3.2,1.6-3.2,1.6s3.8,0.1,3.4,1.2
					C118.8,273.6,122.4,286.6,119.6,288.7z"/>
			</g>
			<path class="st11" d="M431.6,300.1c-2-12.8-10-19-10-19c-10.4-4-88.6-18.8-88.6-18.8L295,232.2c-43.8-13.2-108.7-3-116.5,0.7
				c-2.4,1.1-10.1,14.5-30.7,30.8c-4.3,0-14.6,0-46.3,0.6c0,0-11.4-2.3-16.6,13.2c-1.3,4-3.5,18.4-5.7,24c-1.2,2.9-7.5,1.6-6.1,5.1
				c4.9,12.1,25.8,15.6,25.8,15.6s25.3,0,29.9,0.1c-0.2-1.4-0.3-2.9-0.3-4.4c0-15.5,12.6-26.4,28.1-26.4c15.5,0,28.1,10.9,28.1,26.4
				c0,1.7-0.2,3.3-0.4,5c38.7-0.1,119.4,0,160.4,0.3c-0.4-2-0.4-3.2-0.4-5.3c0-15.5,12.6-26.4,28.1-26.4c15.5,0,28.1,10.9,28.1,26.4
				c0,2.2-0.3,4.3-0.7,6.3c15.5,0,23.7-0.2,25.1-1.1c4.7-3.2,11.9-9.3,13.1-15C438.1,305.5,432,302.4,431.6,300.1z M179.6,266.6
				c0,0,8.6-23.7,12.7-26.8c7.1-5.3,53.5-3.7,53.5-3.7l3.8,30.6L179.6,266.6z M259.7,266.7c0,0-2.9-21.8-4.9-30.9
				c-0.1-0.5,21.7-0.4,33.1,2.3c8.8,2.1,33.3,28.4,33.3,28.4L259.7,266.7z"/>
			<path class="st11" d="M129.8,235.3c6.4,21.9,9.6,33.2,11.3,39.4l11.2-4c-1.1-4.1-3.8-14.1-12.7-44.6c0,0-2.1-12.4-17.1-12.6
				c-4.2,0-20.4,0.4-23.1,2l1.7,8.2c5.2-0.3,9.4-0.8,11.6-1C127.5,221.4,129.8,235.3,129.8,235.3z"/>
			<g>
				<path class="st8" d="M345,318.1c0-14.7,11.9-26.6,26.6-26.6c14.7,0,26.6,11.9,26.6,26.6c0,14.7-11.9,26.6-26.6,26.6
					C356.9,344.7,345,332.8,345,318.1z"/>
				<path class="st12" d="M353.6,318.1c0-10,8.1-18,18.1-18l0,0c10,0,18,8.1,18,18l0,0c0,10-8.1,18-18,18l0,0
					C361.7,336.1,353.6,328,353.6,318.1L353.6,318.1z M356.3,318.1c0,8.5,6.9,15.3,15.3,15.3l0,0c8.5,0,15.3-6.9,15.3-15.3l0,0
					c0-8.5-6.9-15.3-15.3-15.3l0,0C363.2,302.8,356.3,309.6,356.3,318.1L356.3,318.1L356.3,318.1z"/>
				<path class="st12" d="M387.7,321.7c-6.6-0.4-11.4-1.8-11.4-3.6c0-1.7,4.8-3.2,11.4-3.6c-0.4-1.9-1.2-3.7-2.2-5.3
					c-4.9,4.4-9.4,6.8-10.6,5.5c-1.2-1.2,1.2-5.7,5.5-10.6c-1-0.7-2.2-1.2-3.4-1.7c-0.6-0.2-1.2-0.4-1.9-0.5
					c-0.4,6.5-1.8,11.4-3.6,11.4c-1.7,0-3.2-4.9-3.6-11.4c-1.9,0.4-3.6,1.2-5.3,2.2c4.3,4.9,6.8,9.4,5.5,10.6
					c-1.2,1.2-5.7-1.2-10.6-5.5c-0.7,1-1.2,2.2-1.6,3.4c-0.2,0.6-0.4,1.3-0.5,1.9c6.6,0.4,11.4,1.8,11.4,3.6c0,1.7-4.9,3.2-11.4,3.6
					c0.4,1.9,1.2,3.6,2.2,5.3c4.9-4.4,9.4-6.8,10.6-5.5c1.2,1.2-1.2,5.7-5.5,10.6c1,0.7,2.2,1.2,3.4,1.7c0.6,0.2,1.2,0.4,1.9,0.5
					c0.4-6.6,1.9-11.4,3.6-11.4c1.7,0,3.2,4.9,3.6,11.4c1.9-0.4,3.7-1.2,5.3-2.2c-4.3-4.9-6.8-9.4-5.5-10.6
					c1.2-1.2,5.7,1.2,10.6,5.5c0.7-1,1.2-2.2,1.7-3.4C387.4,322.9,387.6,322.3,387.7,321.7z"/>
			</g>
			<g>
				<path class="st8" d="M129.8,318.1c0-14.7,11.9-26.6,26.6-26.6c14.7,0,26.6,11.9,26.6,26.6c0,14.7-11.9,26.6-26.6,26.6
					C141.7,344.7,129.8,332.8,129.8,318.1z"/>
				<path class="st12" d="M138.3,318.1c0-10,8.1-18,18-18l0,0c10,0,18,8.1,18,18l0,0c0,10-8.1,18-18,18l0,0
					C146.4,336.1,138.4,328,138.3,318.1L138.3,318.1z M141.1,318.1c0,8.5,6.9,15.3,15.3,15.3l0,0c8.5,0,15.3-6.9,15.3-15.3l0,0
					c0-8.5-6.9-15.3-15.3-15.3l0,0C147.9,302.8,141.1,309.6,141.1,318.1L141.1,318.1L141.1,318.1z"/>
				<path class="st12" d="M172.5,321.7c-6.6-0.4-11.4-1.8-11.4-3.6c0-1.7,4.9-3.2,11.4-3.6c-0.4-1.9-1.2-3.7-2.2-5.3
					c-4.9,4.4-9.4,6.8-10.6,5.5c-1.2-1.2,1.2-5.7,5.5-10.6c-1-0.7-2.2-1.2-3.4-1.7c-0.6-0.2-1.2-0.4-1.9-0.5
					c-0.4,6.5-1.9,11.4-3.6,11.4c-1.7,0-3.2-4.9-3.6-11.4c-1.9,0.4-3.7,1.2-5.3,2.2c4.3,4.9,6.8,9.4,5.5,10.6
					c-1.2,1.2-5.7-1.2-10.6-5.5c-0.7,1-1.2,2.2-1.6,3.4c-0.2,0.6-0.4,1.3-0.5,1.9c6.6,0.4,11.4,1.8,11.4,3.6c0,1.7-4.9,3.2-11.4,3.6
					c0.4,1.9,1.2,3.6,2.2,5.3c4.9-4.4,9.4-6.8,10.6-5.5c1.2,1.2-1.2,5.7-5.5,10.6c1,0.7,2.2,1.2,3.4,1.7c0.6,0.2,1.2,0.4,1.9,0.5
					c0.4-6.6,1.8-11.4,3.6-11.4c1.7,0,3.2,4.9,3.6,11.4c1.9-0.4,3.7-1.2,5.3-2.2c-4.3-4.9-6.8-9.4-5.5-10.6
					c1.2-1.2,5.7,1.2,10.6,5.5c0.7-1,1.2-2.2,1.7-3.4C172.2,322.9,172.3,322.3,172.5,321.7z"/>
			</g>
			<g>
				<path class="st13" d="M161.3,291.3H82.2c-3.1,1.6-9.7,2.6-9.9,4c-0.1,0.7-0.2,1.5-0.3,2.2c-0.8,7.2,8.7,12,14.7,14.2h42.8
					c0-0.6-0.1-1.1-0.1-1.7C129.3,303.2,140.9,289.8,161.3,291.3z"/>
				<path class="st13" d="M370.1,291.3H158.5c15.9-0.1,21.5,11.4,24.9,18.8c0.2,0.5,2,1.1,2,1.7h159.6c0-0.5,0-1.1,0-1.7
					C345.1,303.2,355.2,291.8,370.1,291.3z"/>
				<path class="st13" d="M436.9,296.5c-1.7-1.9-5.8-4.7-8.3-5.1h-59.6c16-2,32.3,11.9,32.3,18.8c0,0.5,0,1.1,0,1.7h31.1
					c2.1-3.3,5.8-4,6.4-7.9C438.9,301.8,438.7,299.7,436.9,296.5z"/>
			</g>
			<path class="st14" d="M274.9,274.9c0,0.9-0.7,1.6-1.6,1.6h-12.8c-0.9,0-1.6-0.7-1.6-1.6l0,0c0-0.9,0.7-1.6,1.6-1.6h12.8
				C274.2,273.3,274.9,274,274.9,274.9L274.9,274.9z"/>
			<path class="st14" d="M194.8,274.9c0,0.9-0.7,1.6-1.6,1.6h-12.8c-0.9,0-1.6-0.7-1.6-1.6l0,0c0-0.9,0.7-1.6,1.6-1.6h12.8
				C194.1,273.3,194.8,274,194.8,274.9L194.8,274.9z"/>
			<path d="M319.8,265.5c0,4.2-3.8,7.7-8.5,7.7c-2.3,0-2.6-3.4-2.6-7.7c0-4.2,0.2-7.7,2.6-7.7C316,257.8,319.8,261.2,319.8,265.5z"
				/>
			<g>
				<path class="st15" d="M396.3,293.3c0-3.1,0.8-10.1,5.1-10.1c4.3,0,23,0.2,23,0.2s6.6,9.6,4.7,9.6
					C423.4,293,396.3,293.3,396.3,293.3z"/>
				<path class="st16" d="M397.9,292.2c0-2.5,0.7-8.2,4.7-8.2c4,0,22,0.1,22,0.1s5,8,4.2,8C423.4,292,397.9,292.2,397.9,292.2z"/>
				<path class="st17" d="M409.4,291.7l-9.3,0.1c-1.9,0-1.3-1.8-0.8-3.9l0,0c0.5-1.9,1.6-3.3,3.2-3.3h7.1
					C410.1,284.6,409.9,291.7,409.4,291.7z"/>
			</g>
			<g>
				<g>
					<g>
						<path class="st18" d="M136.9,298.2H72.1c0,0.9-0.5,2.6-0.7,4c-0.1,0.8-0.2,1.5-0.3,2.2c-0.8,7.2,13.8,12,19.8,14.2h37.7
							c0-0.6-0.1-1.1-0.1-1.7C128.5,310.1,132.1,303.5,136.9,298.2z"/>
					</g>
					<g>
						<path class="st18" d="M352.6,298.2H175.8c5.7,5.9,8.8,11.9,8.8,18.8c0,0.6,0,1.1-0.1,1.7h159.6c0-0.5,0-1.1,0-1.7
							C344.2,310.1,347.2,303.2,352.6,298.2z"/>
					</g>
					<g>
						<path class="st18" d="M438.9,302.9c-0.1-1.1,0.1-4.3-2.5-4.7h-45.1c5.1,5.6,9.1,11.9,9.1,18.8c0,0.6,0,1.1,0,1.7h30
							c3.4-2.1,7.3-7.5,8.4-11.3C439,305.3,439,304.8,438.9,302.9z"/>
					</g>
				</g>
			</g>
			<path class="st19" d="M260.4,319.2c0,0-1.8-21.2-4.1-37.8c-2.3-16.6-5.9-47.5-7-50.4c-12.9,0-54.6,0.6-58.1,2.3
				c-4.5,2.2-22.4,30.3-23,32.6c-0.6,2.3-1.8,14.9,5.3,18.9c7,4,19.4,18.3,17.6,34.3H260.4z M175.6,284.2c-6.7-3.8-5.6-15.7-5-17.9
				c0.5-2.2,17.4-29.2,21.6-31.3c3.3-1.6,44-2.2,56.3-2.2c1.1,2.7,4.5,32.3,6.7,48.1c2.2,15.8,3.9,36,3.9,36l-65.7,1.1
				C195,302.8,182.3,288,175.6,284.2z"/>
			<path class="st19" d="M332.9,275.8c-1.7-5.1-5.6-11.4-8.2-13.5c-2.2-1.9-27.9-26-35.9-28.3c-8-2.3-40.4-2.9-40.4-2.9l11.2,88.1
				l71.6-0.6C331.2,318.7,334.6,281,332.9,275.8z M329.6,317.3l-68.5,0.6l-10.7-85.3c0,0,31.1,0.5,38.7,2.8
				c7.7,2.2,32.1,25.7,34.3,27.5c2.5,2.1,6.1,8.1,7.8,13.1C332.8,280.9,329.6,317.3,329.6,317.3z"/>
			<g>
				<path class="st20" d="M89.1,268.6c2-1,4.6,1.1,5.2,6.3c0.6,5.1-0.7,13.5-0.7,13.5H83C83,288.4,85.6,270.3,89.1,268.6z"/>
				<path class="st16" d="M95.1,288.9c0,1.1-1.3,1.9-2.9,1.9h-7.4c-1.6,0-2.9-0.9-2.9-1.9l0,0c0-1.1,1.3-1.9,2.9-1.9h7.4
					C93.8,286.9,95.1,287.8,95.1,288.9L95.1,288.9z"/>
			</g>
			<g>
				<path d="M87.1,321.9c2.9-8.6,6.3-10.8,8.8-10.8l0,0c3.6-0.2,7.5,4.8,7.9,7.8l0,0h0c0.1,0.7,0.8,1.2,1.5,1.1l0,0
					c0.7-0.1,1.2-0.8,1.1-1.5l0,0c-0.7-4.2-4.8-9.9-10.5-10.1l0,0c-4.3,0-8.4,3.7-11.4,12.6l0,0c-0.2,0.7,0.2,1.5,0.9,1.7l0,0
					c0.1,0,0.3,0.1,0.4,0.1l0,0C86.4,322.9,86.9,322.5,87.1,321.9L87.1,321.9z"/>
				<path class="st8" d="M79.4,356.6c-2.2-0.9-8.2-3.9-8.2-6.1c0-2.2,0.9-30,1.9-31.7c1.7-2.8,40.3-2.9,41.8-2.9c1.5,0,5,1.7,5,1.7
					l-35.9,16.6L79.4,356.6z"/>
				<path d="M78.1,354.7c0.1,1.4,1.1,2.3,2.4,2.1l41-3.3c1.1-0.2,1.9-1.4,1.8-2.6L121,319c-0.1-1.2-1-2.1-2.1-1.9l-39.5,2.7
					c-1.2,0.2-2.6,1.4-2.5,2.6L78.1,354.7z"/>
				<g>
					<path class="st8" d="M101.8,344c0.1,1.1,0.8,1.9,1.6,1.7l12.9-0.8c0.8-0.1,1.4-1.1,1.3-2.1l-0.7-12.3c-0.1-1-0.8-1.8-1.6-1.7
						l-12.8,1c-0.8,0.1-1.4,1.1-1.4,2.1L101.8,344z"/>
					<path class="st8" d="M82.8,345.7c0,1.1,0.8,1.9,1.7,1.8l13.7-0.8c0.8-0.1,1.5-1.1,1.4-2.2L99,331.8c-0.1-1.1-0.8-1.8-1.6-1.7
						l-13.6,1c-0.9,0.1-1.5,1.1-1.5,2.2L82.8,345.7z"/>
				</g>
				<path d="M90.5,324c2.9-8.6,6.3-10.8,8.8-10.8l0,0c3.6-0.2,7.5,4.8,7.9,7.8l0,0h0c0.1,0.7,0.8,1.2,1.5,1.1l0,0
					c0.7-0.1,1.2-0.8,1.1-1.5l0,0c-0.7-4.2-4.8-10-10.5-10.1l0,0c-4.3,0-8.4,3.7-11.4,12.6l0,0c-0.2,0.7,0.1,1.5,0.9,1.7l0,0
					c0.1,0,0.3,0.1,0.4,0.1l0,0C89.7,324.9,90.3,324.6,90.5,324L90.5,324z"/>
			</g>
			<g>
				<g>
					<path d="M4.1,338.1c-0.2,2.1-2.2,5.7-1.5,8.6c0.3,1,3.9,2,5.5,2.3c0.7,0.2,2.7,1.2,3.9,1.7c4.2,1.5,7.7,0.7,8.5,0.3
						c0.8-0.5,2.8-3.6,0.6-5.2c-1.8-1.3-5.7-3.5-6.3-4.8c-0.6-1.4-2.2-3.8-2.2-3.8L4.1,338.1z"/>
					<path d="M4.2,336.4C4,338.5,2,342.1,2.7,345c0.3,1,3.9,2,5.5,2.3c0.6,0.1,2.7,1.2,3.9,1.6c4.2,1.5,7.7,0.7,8.5,0.3
						c0.8-0.5,2.3-2.8,0-4.4c-1.8-1.3-5.2-4.3-5.8-5.7c-0.6-1.4-2.2-3.8-2.2-3.8L4.2,336.4z"/>
				</g>
				<g>
					<path d="M43.5,337.4c0.1,2.1-1.1,6,0.1,8.7c0.4,0.9,4.8,0.5,6.4,0.5c0.7,0,2.9,0.7,4.1,1c4.4,0.7,8.2-0.5,8.9-1.1
						c0.7-0.6,1.2-3.4-1.3-4.6c-2-0.9-6.2-2.4-7.1-3.6c-0.9-1.2-2.9-3.3-2.9-3.3L43.5,337.4z"/>
					<path d="M44.5,335.2c-1,4.3-2.3,6.6-1.1,9.3c0.4,1,4.8,0.5,6.4,0.5c0.7,0,2.9,0.7,4.1,1c4.4,0.7,8.2-0.5,8.9-1.1
						c0.7-0.6,0.8-2.5-1.7-3.6c-2-0.9-6.1-1.9-6.9-3.2c-0.9-1.2,0.4-4.2,0.4-4.2L44.5,335.2z"/>
				</g>
				<path d="M51.6,261.1c0.2,1.1-3.7,11.5-3.7,11.5S34.3,303.5,32,310.2c-0.9,2.6-12.5,20.8-15.1,31.2C1.3,344.9,0,342.3,0,342.3
					s6.9-30.7,15.6-37.2c1.7-1.3,9.2-26.2,7.1-31.8c-3.2-8.9,5.6-19.7,9.7-18.2C37.5,256.9,51.6,261.1,51.6,261.1z"/>
				<path d="M46.3,264.8c2.6,9.5,1.5,31.4,3.6,36.8c0.8,2.1,1.2,4.1,0.7,8.4c-1.3,11.5,5.2,29.3,5.2,29.3l-13.6,4.2
					c0,0-10.9-11.8-6.3-35.3c0.3-1.3-3.4-26.9-3.4-26.9L46.3,264.8z"/>
				<g>
					<path class="st8" d="M50.6,309.5c0.5-4.2,0.1-6.2-0.7-8.4c-1.6-4.2,1.4-25.1-2.5-35.3l-5.1,6.1c3,6.9,2.1,26.7,3,28.1
						c2.7,4.5,2.7,9.6,1.6,11.4c-0.7,1.3,2.5,22.3,3.9,29.6l5.1-1.7C55.8,339.2,49.3,321.1,50.6,309.5z"/>
				</g>
				<g>
					<path class="st8" d="M32.2,310.3c2.3-6.8,15.9-37.6,15.9-37.6s1.6-4.2,2.7-7.5c-2.5-1.2-6.4-2.4-7.7-0.3
						c-2.2,3.2-12.8,39.8-17.7,45.2c-4.6,5-14,28.8-15.6,32.7c2-0.3,4.4-0.7,7.3-1.4C19.7,331.1,31.4,312.9,32.2,310.3z"/>
				</g>
				<g>
					<path d="M95,215.7c2.1,0.8,3.7,1.3,1.9,2.2c-1.8,0.9-5.4,0.6-6.9-0.3c-2.3-1.3-2.8-2.9-2.8-2.9L95,215.7z"/>
					<path class="st21" d="M89.2,222.8C89.2,222.8,89.2,222.8,89.2,222.8c1.4-2.9,3.1-4.9,2.7-7.4c0-0.2-0.8-1-1.1-1.4
						c-1.5-5.1-13.8-10-17.3-3.1c-2.5,5-2.6,8.6-1.7,11.3c-0.7,0.6-5.6,2.3-5.6,2.3l3.4,8.4c0,0,5.4-1.4,7.8-3
						c1.8,0.7,4.7,0.7,6.1,0.4c1.2-0.2,1.7-1.1,3-2.8c0.9,0.1,1.9,0.4,2.2-0.1C88.8,227.5,89.2,223.5,89.2,222.8z"/>
					<path class="st22" d="M77.5,206.8c1.5-1,3.4-1.9,7.1-0.3c3.6,1.5,5.7,3,7.1,6.3c0.7,1.7-0.7,2.8-0.7,2.8s-1.8-2.1-2.7-2.2
						c-0.9-0.1-0.1,1.7-1.9,2.7c-1.5,0.9-2.8,2.9-2.8,2.9s-3.9,0.5-4.4,1.6c-0.5,1.1-9.6,1.8-9.6,1.8s1.1-2.2,1.6-7.9
						C71.7,207.7,77.1,207,77.5,206.8z"/>
					<path class="st21" d="M83,220.1c-0.2-1.8-1.6-2.8-2.6-2.3c-0.9,0.5-2.9,3.7-2,4.2C80,222.9,83,220.1,83,220.1z"/>
					<path class="st23" d="M71,216.8c1.5-0.1,10.7-2.8,10.7-2.8s4.8,4,7.2,4.1c2.4,0.1,6.7-1.6,8.7-1.2c-3.5-2.7-4.9-3-4.9-3
						s-0.7-5.6-3.5-8c-1.8-1.5-6.4-1.7-8-1.4c-1.6,0.3-6.6,0.7-8.5,4.2C70.9,212.2,71,216.8,71,216.8z"/>
				</g>
				<path class="st24" d="M72.8,208.7c-1.9,3.5-1.8,8.1-1.8,8.1c1.2-0.1,8.7-2.3,10.7-2.8c-0.9-3-1.5-7.4-0.1-9.6
					c-0.2,0-0.3,0-0.4,0C79.6,204.8,74.7,205.2,72.8,208.7z"/>
				<path class="st25" d="M64.5,223.5c1.2-0.9,3.6-4.4,5.5-3.7c0.7,0.3,6.4,9.8,9.7,11.9c1.2,0.8-9.8,12.5-11,13
					c-1.2,0.5,2.9-6.2,2.3-10.1C70.4,230.7,64.5,223.5,64.5,223.5z"/>
				<path class="st23" d="M67.8,224c-5.2,0-11.6-0.1-18.3,8c-5.2,6.3-16.2,17.5-16.2,21.9c0,3,12.6,15.4,15.2,16.6
					c2.6,1.2,4.2,4.4,9.5-6.9c1.7-3.7,14-18.2,15.1-29.3C73.8,227.5,67.8,224,67.8,224z"/>
				<path class="st25" d="M51.7,271.6c2,0.9-3.7,4.7-3.7,4.7c-6.1-0.4-20.1-19.4-20-21c0.1-1.6,2.7-2.8,2.7-2.8s0-0.1-0.3-1
					c-1.2-4.4,17.6-19.1,23-24.1c4.4-4,12.7-4.3,14.9-3.6c2.2,0.7,3.9,2.5,3.9,2.5l-6.6,3.4c0,0-1,2.4-1.5,6.9
					C62.9,249,43.8,264,44.4,265.2C45.1,266.5,48.8,270.3,51.7,271.6z"/>
				<g>
					<path class="st21" d="M98,256.7c1-0.6-0.3-2.2-0.7-2.2l0,0c-0.6-0.4-1.8-0.6-2.9-0.7l2.4,0.1c0,0-0.9-1.4-1.8-1.5
						c-0.9,0-3.9,0-5,0.2c-1.1,0.2-2.7-0.2-3.2,0.4c0,0-3,6.4-0.4,6.1c2.7-0.3,1.9,1,4,1.9c1.7,0.7,2.5,1.4,3.4,1.4
						c0.5,0.1,1.2,0.1,1.8,0c0.8-0.1,1.5-0.8,1.5-1.3c0.7,0,1-1.4,0.5-1.9C98.5,258.7,99,257.4,98,256.7z"/>
					<g>
						<path class="st25" d="M65.9,226.2c-3.6-2.2-9.4,4.3-10.4,6.2C50.9,241,65.1,252,67,253.9c5.7,5.7,18.9,9.7,21.4,7.8
							c0.6-0.4,4.6-2,2.4-9.7c0,0-3.6-1.8-5.5-2.4c-1.8-0.6-8.8-1.2-8.5-3.4C77.2,244.2,68,227.5,65.9,226.2z"/>
						<g>
							<path class="st23" d="M77.8,243.9c-0.9-0.7-8.1-14.7-9.6-16.3c-1.3-1.4-3.7-2.9-4.9-0.7c-3.2,2.7,6.1,13.3,9.6,19.6
								c1.3,2.4,15.6,8.1,18.2,9.3c1.2-2.1-1.1-4.8-1.1-4.8S81,246.5,77.8,243.9z"/>
						</g>
					</g>
				</g>
			</g>
		</g>
	</g>
	<g>
		<g>
			<g>
				<g>
					<path class="st26" d="M317.4,254.6c-0.5,0-1-0.1-1.3-0.1c-1.5-0.2-3.3-0.6-5.3-1.2c-3.1-0.8-6.6-1.7-10.1-1.9
						c-1.6-0.1-2.9-1.5-2.8-3.1c0.1-1.6,1.5-2.9,3.1-2.8c4.2,0.2,8.1,1.2,11.3,2.1c1.7,0.4,3.9,1,4.9,1.1c0.8-1.5,2.4-5.6,5-17.5
						c0.4-1.6,1.9-2.6,3.6-2.3c1.6,0.4,2.6,1.9,2.3,3.6c-2.6,11.9-4.5,18-6.4,20.4C320.4,254.3,318.6,254.6,317.4,254.6z"/>
				</g>
				<path class="st27" d="M353.4,335.4c1.5,1.5,1.4,0.8,1.5,1.8c0.1,0.8,0.2,1.2,0.1,2.3c-0.3,3-0.9,6.4-1,6.5
					c-0.1,0.3-1,0.6-1.5,0.3c-0.4-0.2-1.2-5.3-1.2-5.2L353.4,335.4z"/>
				<g>
					<path class="st28" d="M324.1,311.2c0.1,1.9,0.2,3.8,0.3,5.7c0.4,7.6,1.1,15.9,2.3,23.9c0.2,1.6,1.6,2.7,3.1,2.7
						c0.2,0,0.3,0,0.5,0c1.7-0.3,2.9-1.8,2.6-3.6c-1-6.9-1.7-14-2.1-20.7c-0.2-3.1-0.4-6.1-0.5-9c-0.5-13.7-0.2-24.3-0.1-25.9
						c0.2-1.3,1.6-8.3,2.5-12.3c0.4-1.7-0.6-3.4-2.3-3.8c-1.7-0.4-3.4,0.6-3.8,2.3c-1.1,4.6-2.6,12.5-2.7,12.9l0,0.2l0,0.2
						C324,284,323.5,295.8,324.1,311.2z"/>
					<path class="st29" d="M324.1,311.2c0.1,1.9,0.2,3.8,0.3,5.7c1.3,1,3.3,1.9,6.4,2.3c-0.2-3.1-0.4-6.1-0.5-9L324.1,311.2z"/>
				</g>
				<g>
					<path class="st28" d="M338.2,267c0,0.3,0.8,18.7,4.1,42.2c0.4,2.8,0.8,5.6,1.3,8.5c1.1,6.7,2.4,13.7,3.9,20.6
						c0.3,1.5,1.7,2.5,3.1,2.5c0.2,0,0.4,0,0.6-0.1c1.7-0.4,2.8-2,2.4-3.7c-1.4-6.2-2.5-12.4-3.5-18.5c-0.5-3.2-1-6.3-1.4-9.4
						c-3.4-23.6-4.2-42.1-4.2-42.4c-0.1-1.7-1.5-3.1-3.3-3C339.4,263.8,338.1,265.2,338.2,267z"/>
					<path class="st29" d="M342.3,309.2c0.4,2.8,0.8,5.6,1.3,8.5c1.5,0.5,3.6,0.9,6.5,0.8c-0.5-3.2-1-6.3-1.4-9.4
						C346.9,309.2,344.4,309.2,342.3,309.2z"/>
				</g>
				<g>
					<path class="st30" d="M321.6,224.8C321.6,224.9,321.6,224.9,321.6,224.8C321.6,224.9,321.6,224.9,321.6,224.8z"/>
					<path class="st31" d="M351.8,268.9c0,3.1-0.2,6.1-0.2,8.4l0.6,35.7c0,0.8-1.6,1.5-4,2.1c-4.3,1-11.3,1.5-17,1.3
						c-0.7,0-1.4-0.1-2-0.1c-0.9-0.1-1.7-0.1-2.4-0.3c-4.1-0.6-5.6-2.1-5.6-3.1l2.3-42.2c0-6.5-0.2-20.8-0.2-29.2
						c-0.1-4.3-0.7-7.2-1.2-11c-0.4-2.8-0.5-5.5,1-7.8c0.5-0.8,1.3-1.6,2.3-2.4c2.1-1.5,5.1-2,6.8-2.2l0.3-0.2c0.9,0,1.8,0,1.8,0
						c2.9,0,5.2,0.8,7.1,2.2c0.7,0.5,1.3,1,1.8,1.6c1.7,1.9,3,4.3,3.8,6.9c0.8,2.5,0.3,5.1,0.5,7.8c0,0,0,0,0,0.1
						c0.6,7.3,0.9,13.3,1.1,16.7c0.1,1.6,0.1,2.6,0.2,2.8c1.6,1.7,2.5,4.3,2.8,7.2c0.2,1.2,0.2,2.4,0.3,3.6
						C351.8,267.6,351.8,268.3,351.8,268.9z"/>
					<path class="st26" d="M352.7,268.9c0,3.1-0.2,6.1-0.2,8.4l-0.3,35.7c0,0.8-1.6,1.5-4,2.1c0.1-9.6,0-39,0-42.2
						c-0.2-9.1-2.1-11.4-4.5-12.3c-1.3-0.5-8.6,4.6-9.3,4.5c0,0,11.6-9.4,15.1-11.9c0.1,1.6,0.1,2.6,0.2,2.8
						c1.6,1.7,2.5,4.3,2.8,7.2c0.2,1.2,0.2,2.4,0.3,3.6C352.7,267.6,352.7,268.3,352.7,268.9z"/>
					<path class="st26" d="M332.6,228c1.6-0.7,4.6-2.3,6.2-2.8c2-0.6,4.5,0,5,1.9c0.6,1.9,2.7,3.1,2.9,3s-0.2-1.4-0.2-1.4
						s-0.6-4.1-2.4-5.2c-1.8-1.1-6.5-1.2-6.5-1.2c-0.8,0.6-2.5,2.3-3,3c-0.6,0.6-2.5,1.7-2.5,1.7L332.6,228z"/>
					<path class="st31" d="M326.3,241c-0.9-0.1-2.9-0.1-3.5-0.5s-1.7-1.6-1.2-4c0.5-2.3,0.7-4.3,0.6-5.5c-0.2-1.3,1.3,0,2.1,0.7
						c0.8,0.6,3,2.4,3,2.4c1,0.7,0.9,0.6,1.1,1.9C328.5,237.2,326.3,241,326.3,241z"/>
					<path class="st26" d="M349.6,256.1c1.6,1.7,2.5,4.3,2.8,7.2c-1.7-4.3-8.3-5.1-10-5.1c0,0-0.3-1.5,0.2-2.9
						c0.6-1.4-0.2-9.7,0-14.3c0,0-0.9-6-0.9-7.3c0-1.4-0.8-3.9-0.9-4.9c-0.1-1,1.3-3,2.6-2.2c0.4,0.3,1.8,1.1,3.5,2.1
						c0.8,2.5,1.2,5.1,1.4,7.8c0,0,0,0,0,0.1C349.2,247.3,349.5,255.4,349.6,256.1z"/>
					<path class="st26" d="M321.5,236.5c-0.2,2.2,1,4.1,3.6,3.5c3-0.6,6.3-0.4,8.8-0.1c6.3,0.6,7.1-5.6,7.1-5.6s0.5,0.6,1.5,2.2
						c-1.2,5.3-1.1,12.2-0.9,18.9c0,1.5-1.8,2.4-2.1-0.6c-0.3-3-0.7-7.3-0.9-8.8c-0.5-3.3-2.8-3.9-6.2-3.8c0,0,0,0,0,0c0,0,0,0,0,0
						c-3.7-0.1-6.4-0.1-7.7,0.4c-1.6,0.6-1.7,2-1.7,2c-0.1-0.5,0-3.1-0.2-3.2C321.1,240.1,320.9,238.4,321.5,236.5z"/>
					<g>
						<path class="st32" d="M328.5,267.6c0.4,0,1.3,1.2,1.6,1c1.3-0.6,9.1-6.2,15.1-12.6c1.4-1.5,2.2-4.6,0.8-15.8
							c-0.8-6.1-1.8-12-1.9-12.1c-0.2-1.3-1.1-3.1-3.5-2.6c-2.2,0.4-2.9,2.1-2.6,3.5c0,0.1,1,5.3,1.7,11c1.2,9.6,0.8,12.1,0.6,12.7
							c-5.7,5.4-11.5,10.1-12.5,10.7c-1.2,0.6-2,1.6-1.5,2.8C326.8,267.1,327.6,267.6,328.5,267.6z"/>
					</g>
					<path class="st33" d="M333.8,219.9c0.8,1.8-0.4,3.6-3.3,4c-2.6,0.4-3.1-1.6-3.1-1.6L333.8,219.9z"/>
					<path class="st26" d="M327.5,222.2c0,0.9,1.2,3.4,2.7,4.2c1.5,0.8,0,1.2-0.2,1.3c-0.3,0.1-1.9-0.6-1.9-0.6
						c-0.5-0.6-2.4-2.6-2.3-2.9c0-0.3-0.2-1.5,0.2-1.9C326.2,221.9,327.5,222.2,327.5,222.2z"/>
					<path class="st26" d="M323,222.7c0.2,0.8,1.5,3.8,4.9,5.4c3.4,1.6,1.6,0,1.3-0.4s-2.5-2.6-2.5-2.6c-1-1.6-1-3.5-1.5-3.6
						c-0.5-0.1-1.8,0.6-1.9,0.7C323.2,222.5,323,222.7,323,222.7z"/>
				</g>
				<path class="st27" d="M332.6,337c1.3,1.7,1.3,0.9,1.3,2c0,0.8,0,1.3-0.2,2.3c-0.6,2.9-1.6,6.3-1.7,6.4c-0.1,0.3-1,0.4-1.5,0.1
					c-0.5-0.3-0.6-5.4-0.6-5.3L332.6,337z"/>
				<path class="st34" d="M326.9,346.8c-3,2-6.5,2.1-8.1,1.4c-1.6-0.6-0.1-3.8,3.3-6.9c3.4-3,8-5.6,10.3-5.1c0.5,0.1,1,0.6,1.3,1
					c0.6,1.1,0.6,1.7,0,4.1C333.6,341.9,331.5,343.7,326.9,346.8z"/>
				<path class="st34" d="M348.7,345.7c-2.7,2.3-6.2,2.8-7.9,2.3c-1.6-0.4-0.6-3.7,2.5-7.2c3-3.4,7.3-6.5,9.6-6.3
					c0.5,0,1.1,0.5,1.4,0.9c0.7,1,0.8,1.6,0.5,4.1C354.8,340.1,353,342.1,348.7,345.7z"/>
				<path class="st28" d="M347,336.4c0.2,1.1-1.3,2.4-2.1,3.6c-0.5,0.7-0.8,1.6,0,1.6c2.3,0.2,4.1-1,5.4-2.1c3.3-3,3.6-3,3.3-4.1
					c-0.1-0.5-0.7-0.8-0.8-1.8c-0.1-0.8-1.2,0.2-1.2,0.2S346.9,335.7,347,336.4z"/>
				<path class="st28" d="M326.2,337.7c0.1,1.1-4.3,4-2.6,4.4c2.3,0.5,4.2-0.3,5.6-1.3c3.7-2.6,3.9-2.6,3.7-3.7
					c-0.1-0.5-0.6-0.9-0.6-1.9c0-0.8-1.2,0-1.2,0S326.2,336.9,326.2,337.7z"/>
				<path class="st35" d="M348.3,236.5c-0.9-3.2-1.6-5.8-2.7-8.6c-0.6-1.6-1.3-2.6-2.1-3.3c-1.8-1.6-3.9-1.2-6-0.1
					c-0.2,0.1-0.3,0.2-0.5,0.2c0,0,0,0-0.1,0c-2.3,1.2-4.4,2.4-5,3l-1.5-0.6c0,0,3.7-2.7,3.5-6.1c0-0.1,0-0.3-0.1-0.4
					c-0.3-1.9-3.9-1-5.6,0.3c-0.5,0.3-0.8,0.7-0.9,1c-0.3,1.7,0.5,4.1,2.1,5.3l-1,1c0,0-4.2-1.8-5.8-5.4c-0.3-0.6,1.3-1.9,2.3-2.7
					c0.6-0.5,1.4-0.8,2.1-1.1c1.7-0.6,3.5-0.9,4.7-1l0.3-0.2c0.9,0,1.8,0,1.8,0c0.6,0,1.3,0,1.9,0.1c2.9,0.2,5.6,1,7.4,2.7
					c0.1,0.1,0.3,0.2,0.4,0.4C347.1,224.5,347.8,229.6,348.3,236.5z"/>
				<path class="st36" d="M343.8,220.9c-0.1-0.1-0.2-0.3-0.4-0.4c-0.1-0.1-0.3-0.2-0.4-0.3c0,0-0.1-0.1-0.1-0.1
					c-0.1-0.1-0.2-0.1-0.3-0.2c-0.1,0-0.1-0.1-0.2-0.1c-0.1-0.1-0.2-0.1-0.3-0.2c-0.1,0-0.1-0.1-0.2-0.1c-0.1-0.1-0.2-0.1-0.3-0.2
					c-0.1,0-0.1-0.1-0.2-0.1c-0.2-0.1-0.3-0.2-0.5-0.2c0,0-0.1,0-0.1,0c-0.1-0.1-0.3-0.1-0.4-0.2c-0.1,0-0.1,0-0.2-0.1
					c-0.1,0-0.2-0.1-0.4-0.1c-0.1,0-0.1,0-0.2-0.1c-0.1,0-0.2-0.1-0.4-0.1c-0.1,0-0.1,0-0.2-0.1c-0.1,0-0.3-0.1-0.4-0.1
					c0,0-0.1,0-0.1,0c-0.2,0-0.4-0.1-0.6-0.1c0,0-0.1,0-0.1,0c-0.2,0-0.3-0.1-0.5-0.1c-0.1,0-0.1,0-0.2,0c-0.1,0-0.3,0-0.4-0.1
					c-0.1,0-0.1,0-0.2,0c-0.1,0-0.3,0-0.4,0c-0.1,0-0.2,0-0.2,0c0,0-0.1,0-0.1,0c0,0,0,0,0,0c-0.6,0-1.2-0.1-1.9-0.1
					c-0.1,0-1,0-1.8,0l-0.3,0.2c-1.2,0.1-3,0.4-4.7,1c0.3,1,0.6,1.4,1,1.8c0.1,0.1,0.2,0.3,0.4,0.4c0.8,0.8,1.7,1.2,2.3,1.3
					c0.6,0.1,1.7,0.2,1.7,0.2c0.5-0.2,1.2-0.6,1.3-1.7c0-0.2,2.3-1.6,4.5-1.6c2.2,0,4.2,2,4.9,4.7c0,0.2,0.1,0.3,0.1,0.5
					c0.8,0.7,1.5,1.8,2.1,3.3c1.1,2.8,1.8,5.4,2.7,8.6C347.8,229.6,347.1,224.5,343.8,220.9z"/>
				<g>
					<circle class="st37" cx="338.2" cy="207.9" r="4.1"/>
					<path class="st38" d="M340.6,198.4c0-7.8-4.9-12.6-12.7-12.6c-7.8,0-5.1,4.9-5.1,12.6c0,7.8-2.3,12.8,5.3,14.1
						C336.3,213.8,340.6,206.2,340.6,198.4z"/>
					<g>
						<path class="st39" d="M314.7,196c0.6,5,4.3,6.9,6.9,7.1l5-17C320,185.9,314.1,190.9,314.7,196z"/>
						<path class="st28" d="M327.5,222.4c0,0,0.5,1.9,3.1,1.6c2.8-0.4,4.1-2.3,3.3-4c-0.6-1.4-3.2-7.8-3.2-7.8l-6.8,1.2L327.5,222.4
							z"/>
						<path class="st29" d="M326.5,219.8c0.6,1.2,3.9-0.3,5-1.3c0.9-0.7,1.9,0.3,1.9,0.3l-3.6-8.9l-6.9,1.6L326.5,219.8z"/>
						<path class="st29" d="M316.8,206.1c0,1.9,1.7,6.4,2.7,7.7c0.4,0.6,0.9,1.3,2.3,1.7c1.3,0.4,3.2,0.7,3.7,2
							c0.3,0.7,0.1-0.7,0.6-0.8c5.6-1,9.6-6.8,9.6-11.5l-1.3-6.6c0-5.1-4.1-9.4-9-9.4c-5,0-9,4.2-9,9.4L316.8,206.1z"/>
						<path class="st28" d="M316.5,205.9c0.2,5.4,2.4,10.1,8,9.9c6.5-0.2,8.3-6.8,8.1-11.9l-0.3-4.5c-0.2-5.1-2.3-10.3-7.3-10.2
							c-5,0.2-8.9,4.5-8.7,9.7L316.5,205.9z"/>
						<path class="st40" d="M329.4,203.8c0,1.3-1,2.3-2.3,2.3h-2.1c-1.3,0-2.3-1-2.3-2.3v-2.3c0-1.3,1-2.3,2.3-2.3h2.1
							c1.3,0,2.3,1,2.3,2.3V203.8z"/>
						<path class="st40" d="M320.3,203.8c0,1.3-1,2.3-2.3,2.3h-2.1c-1.3,0-2.3-1-2.3-2.3v-2.3c0-1.3,1-2.3,2.3-2.3h2.1
							c1.3,0,2.3,1,2.3,2.3V203.8z"/>
						<path class="st41" d="M316.5,206c0,0-0.7,0.1-1.5,0.1s-1.5-1-1.5-2.3v-2.3c0-1.3,0.6-2.3,1.3-2.3c0.7,0,1.4,1,1.4,2.3l0.1,2.1
							C316.4,204.9,316.5,206,316.5,206z"/>
						<path class="st23" d="M317.6,202.2c0,0.7,0.6,1.2,1.3,1.2c0.7,0,1.3-0.6,1.3-1.2c0-0.7-0.6-1-1.3-1S317.6,201.5,317.6,202.2z"
							/>
						<path class="st23" d="M327.8,202.1c0,0.7-0.6,1.2-1.3,1.2s-1.3-0.6-1.3-1.2s0.6-1,1.3-1S327.8,201.4,327.8,202.1z"/>
						<path class="st38" d="M338.7,199.1c4.7-0.9-7.5-10.4-8.8-10.8c-0.9-0.3,0.4-2.5-2.3-2.6c-2.7,0-5.5,0.5-7.3,1.8
							c-2.5,1.7-2.7,2-1.9,4.2C320.6,197.3,334.4,199.9,338.7,199.1z"/>
						<path class="st38" d="M331.8,198.7c0.1,2.4,0.3,3.2,0.4,3.7c0.3,0.8,0.9,0.5,1-0.1c0.1-0.7,0.5-1.8,2.2-2.3
							c0.2-0.1-3.6-2.3-3.6-2.3L331.8,198.7z"/>
						<path class="st42" d="M326.1,209.2c0,0-0.8,2.5-3.2,2.5c-2.7,0-2.7-2.5-2.7-2.5L326.1,209.2z"/>
						<path class="st43" d="M328.4,199.6l-4-0.4L328.4,199.6z"/>
						<path class="st43" d="M316.3,199.6l3.4-0.3L316.3,199.6z"/>
						<path class="st38" d="M326.1,192.3c1.6,2.6-0.7,5,2.4,5.7c2.6,0.6,3.1,1.1,3.5,3.3c0.3,1.6,3.3-2.8,3.3-2.8s0.7-3.5,0.2-3.8
							s-4.8-1-5.2-1.2C329.8,193.3,326.1,192.3,326.1,192.3z"/>
						<path class="st29" d="M322.7,213.2c0.6,0,0.8-0.1,1.3-0.1s0.6,0.3,0.3,0.5c-0.4,0.3-0.9,0.4-1.6,0.4c-0.3,0-0.6-0.1-0.9-0.3
							c-0.4-0.2-0.4-0.7,0-0.6C322,213.1,322.4,213.2,322.7,213.2z"/>
						<g>
							<path class="st29" d="M321.6,207.3c-1,0-1.8-0.7-1.7-1.3c0-0.2,0.2-0.5,0.6-0.3c0.2,0.1,0.6,0.2,1.1,0.2c0.5,0,0.8-0.1,1-0.2
								c0.6-0.2,0.8,0.1,0.8,0.3C323.5,206.7,322.6,207.3,321.6,207.3z"/>
						</g>
						<path class="st44" d="M321.4,211.4c0.7-0.8,2.4-0.8,3.8-0.7c-0.5,0.5-1.3,1-2.4,1C322.2,211.7,321.8,211.6,321.4,211.4
							C321.4,211.4,321.4,211.4,321.4,211.4z"/>
						<path class="st45" d="M327,202.2c0,0.5-0.4,0.8-0.8,0.8c-0.5,0-0.8-0.4-0.8-0.8s0.4-0.8,0.8-0.8
							C326.6,201.3,327,201.7,327,202.2z"/>
						<path class="st45" d="M319.4,202.2c0,0.5-0.4,0.8-0.8,0.8c-0.5,0-0.8-0.4-0.8-0.8s0.4-0.8,0.8-0.8
							C319.1,201.4,319.4,201.8,319.4,202.2z"/>
						<g class="st0">
							<path class="st23" d="M319.4,205.7l-2.6,0.4l-3-6l0.2-0.3l2.1-0.6C317.2,201.2,318.8,204.6,319.4,205.7z"/>
						</g>
						<g class="st0">
							<path class="st23" d="M328.7,205.7l-2.6,0.4l-3-6l0.2-0.3l2.1-0.6C326.5,201.2,328.1,204.6,328.7,205.7z"/>
						</g>
						<g>
							<path class="st46" d="M320.1,202c-0.1,0-0.1,0-0.2-0.1c0,0-0.5-0.3-1.2-0.3c-0.6,0-1.2,0.3-1.2,0.3c-0.2,0.1-0.3,0-0.4-0.2
								c-0.1-0.2,0-0.3,0.2-0.4c0,0,0.8-0.3,1.4-0.3c1,0,1.6,0.4,1.6,0.4c0.1,0.1,0.2,0.3,0.1,0.4C320.3,202,320.2,202,320.1,202z"
								/>
						</g>
					</g>
					<path class="st28" d="M320,209.5c0.2,0.1,1.2,0.3,2.5,0.3s3.4-0.1,3.9-0.3V209h-6.4L320,209.5z"/>
					<path class="st47" d="M327.1,206.6h-2.1c-1.5,0-2.8-1.2-2.8-2.8v-2.3c0-1.5,1.2-2.8,2.8-2.8h2.1c1.5,0,2.8,1.2,2.8,2.8v2.3
						C329.8,205.3,328.6,206.6,327.1,206.6z M324.9,199.7c-1,0-1.8,0.8-1.8,1.8v2.3c0,1,0.8,1.8,1.8,1.8h2.1c1,0,1.8-0.8,1.8-1.8
						v-2.3c0-1-0.8-1.8-1.8-1.8H324.9z"/>
					<path class="st47" d="M318,206.6h-2.1c-1.5,0-2.8-1.2-2.8-2.8v-2.3c0-1.5,1.2-2.8,2.8-2.8h2.1c1.5,0,2.8,1.2,2.8,2.8v2.3
						C320.7,205.3,319.5,206.6,318,206.6z M315.8,199.7c-1,0-1.8,0.8-1.8,1.8v2.3c0,1,0.8,1.8,1.8,1.8h2.1c1,0,1.8-0.8,1.8-1.8v-2.3
						c0-1-0.8-1.8-1.8-1.8H315.8z"/>
					<g>
						<rect x="329.5" y="201.1" class="st48" width="5" height="0.9"/>
					</g>
					<path class="st29" d="M333.1,202.7c-0.1,1.6,0.8,2.9,2.1,3c1.3,0.1,2.4-1.1,2.5-2.7c0.1-1.6-0.6-2.8-1.8-3
						C334.6,199.9,333.3,201.2,333.1,202.7z"/>
					<path class="st23" d="M335.7,205.1c0,0.4,0.2,0.8,0.5,0.8c0.3,0,0.6-0.3,0.7-0.7c0-0.4-0.1-0.7-0.5-0.8
						C336.1,204.4,335.8,204.7,335.7,205.1z"/>
					<g>
						<path class="st29" d="M336.4,203.8c-0.4,1.1-1.4,1.5-2,1.3c-0.9-0.3,0.4-4.2,1.5-3.9C336.8,201.5,336.8,202.7,336.4,203.8z"/>
					</g>
					<g>
						<path class="st47" d="M320.7,202.9h-0.9c0-0.9,0.7-1.6,1.6-1.6c0,0,0,0,0,0c0.4,0,0.9,0.2,1.2,0.5c0.3,0.3,0.5,0.7,0.5,1.2
							h-0.9c0-0.2-0.1-0.4-0.2-0.5c-0.1-0.1-0.3-0.2-0.5-0.2c0,0,0,0,0,0C321.1,202.2,320.7,202.5,320.7,202.9z"/>
					</g>
				</g>
				<path class="st23" d="M328.2,263.3c0.8-1.1,2.8-2.1,4.6-0.4c1.7,1.6,1.1,3.9-0.5,4.6l-3.4-1.9
					C328.8,265.4,327.5,264.2,328.2,263.3z"/>
				<g>
					<path class="st49" d="M328.1,201.9c0,0-0.1,0-0.1,0c0,0-0.8-0.3-1.6-0.3c-0.6,0-1.2,0.3-1.2,0.3c-0.2,0.1-0.3,0-0.4-0.2
						c-0.1-0.2,0-0.3,0.2-0.4c0,0,0.8-0.3,1.4-0.3c0.9,0,1.8,0.4,1.8,0.4c0.2,0.1,0.2,0.2,0.2,0.4
						C328.4,201.9,328.3,201.9,328.1,201.9z"/>
				</g>
				<path class="st29" d="M325.2,263.2c-1.2,0.1-2.4,0.9-3.6,2.2c-1.1,1.3,1.1,2.5,2.1,2.1s2.5-2.3,2.5-2.9
					C326.1,264.1,325.2,263.2,325.2,263.2z"/>
				<g>
					<g>
						<path class="st50" d="M312.8,352.2c-0.1,0-0.2,0-0.3,0c-1-0.1-1.7-1.1-1.6-2.1l11.1-80.3c0.1-1,1.1-1.7,2.1-1.6
							c1,0.1,1.7,1.1,1.6,2.1l-11.1,80.3C314.4,351.5,313.7,352.2,312.8,352.2z"/>
					</g>
					<g>
						<path class="st50" d="M323.9,271.4c0,0-0.1,0-0.1,0c-1-0.1-1.8-0.9-1.7-1.9c0.1-2,3-4.9,6.7-4.7c2.5,0.1,4.5,1.3,4.7,1.5
							c0.9,0.5,1.1,1.7,0.6,2.5c-0.5,0.9-1.7,1.1-2.5,0.6c0,0-1.4-0.8-2.9-0.9c-1.7-0.1-2.7,1.1-2.9,1.5
							C325.6,270.7,324.8,271.4,323.9,271.4z M325.7,269.9L325.7,269.9L325.7,269.9z M325.7,269.6
							C325.7,269.6,325.7,269.6,325.7,269.6C325.7,269.6,325.7,269.6,325.7,269.6z"/>
					</g>
					<g>
						<path class="st50" d="M323.7,269.7c-0.3,0-0.7-0.1-1-0.3l-2.7-1.7c-0.9-0.5-1.1-1.7-0.6-2.5c0.5-0.9,1.7-1.1,2.5-0.6l2.7,1.7
							c0.9,0.5,1.1,1.7,0.6,2.5C324.9,269.4,324.3,269.7,323.7,269.7z"/>
					</g>
				</g>
				<path class="st28" d="M332.4,265.7c-2.1-0.7-2.8,1.1-3,2.4c-0.2,1.6-2.9,1.8-4.3,1.5c-2.5-0.5-2.6-3-1.6-4.7
					c1.2-2.1,1.9-2.3,3.9-2c1.3,0.2,2.3,0.3,3.3,0.6C332.2,264,332.4,265.7,332.4,265.7z"/>
				<path class="st26" d="M335.2,234c0,0-3.6-0.9-4.3-4.6c-0.2-1.4,0.2-2.2,0.3-2.1C334.2,227.6,335.4,230,335.2,234z"/>
				<path class="st26" d="M327.4,234c0,0,3.6-0.9,4.3-4.6c0.2-1.4-0.2-2.2-0.3-2.1C328.4,227.6,327.2,230,327.4,234z"/>
				<path class="st29" d="M333.3,211.3c-0.2,0.5,0.2,0.5-0.4,1.2c-0.9,1-1.4,2.1-1.1,3.4c0.3,1.3-1.1,0.8-1.1,0.6
					c0-0.2-0.1-1.5,0-1.8c0.1-0.3,0.4-1.5,0.5-1.6c0.1-0.1,0.9-1,0.9-1L333.3,211.3z"/>
				<path class="st35" d="M334.3,233.5c0,0-3.6-0.9-4.3-4.6c-0.2-1.4,0.2-2.2,0.3-2.1C333.3,227.1,334.6,229.6,334.3,233.5z"/>
				<path class="st35" d="M326.5,233.5c0,0,3.6-0.9,4.3-4.6c0.2-1.4-0.2-2.2-0.3-2.1C327.5,227.1,326.3,229.6,326.5,233.5z"/>
				<path class="st28" d="M321.3,203.6c0.8,0,0.7,2.1,0.7,2.1l-0.3,0.2c-0.7,0-1.5,0-1.7-0.8C319.7,204.2,320.1,203.6,321.3,203.6z"
					/>
				<circle class="st35" cx="330.1" cy="227.6" r="1.3"/>
			</g>
			<path class="st28" d="M301.3,248.7c-1.3,0.1-2.3,1.3-2.3,2.6c0,1.5-2.3,1.9-4,1.9c-2,0-2.4-2.5-1.8-4.3c0.7-2.1,2.4-2.4,4.1-2.3
				c1.6,0.1,2.2,0,2.9,0C301,246.6,301.3,248.7,301.3,248.7z"/>
		</g>
		<g>
			<g class="st51">
				<path class="st52" d="M242,347.9c0,0.8,0.6,1.4,1.4,1.4h69.9l-0.3,2.9l15.2-2.9h29.6c0.8,0,1.4-0.6,1.4-1.4c0,0,0.2-0.9-1.4-0.9
					h-4.1l0.1-1l-1.4,0.1l-6,0.9H242.8C242,347,242,347.9,242,347.9z"/>
			</g>
			<g>
				<path class="st53" d="M261,270.4c1.8,0,3.2,0.8,3.2-1c0.2-18.7,6.5-42.3,7.7-44.7c0.9-1.6,0.3-3.6-1.2-4.5
					c-1.6-0.9-3.6-0.4-4.5,1.2c-1.9,3.3-8.3,28.6-8.5,47.7C257.6,271,259.1,270.4,261,270.4C260.9,270.4,261,270.4,261,270.4z"/>
			</g>
			<g>
				<path class="st54" d="M249.7,287c-0.1,0-0.2,0-0.2-0.1c-0.2-0.1-0.3-0.4-0.2-0.6l7.8-13.2c0.2-0.4,0.7-0.6,1.1-0.6h4.8
					c0.5,0,0.9,0.4,1,0.8l2.7,11.3c0.1,0.3-0.1,0.5-0.4,0.6c-0.3,0.1-0.5-0.1-0.6-0.4l-2.7-11.3c0,0-0.1-0.1-0.1-0.1h-4.8
					c-0.1,0-0.3,0.1-0.3,0.2l-7.8,13.2C250,286.9,249.9,287,249.7,287z"/>
			</g>
			<g>
				<polygon class="st55" points="241.8,321.9 267.7,321.9 270.4,284.8 244.6,284.8 				"/>
				<polygon class="st56" points="250.9,321.9 277.5,321.9 273.8,284.8 249.8,284.8 				"/>
				<path class="st57" d="M255.1,287.3c0-0.6-0.5-1.1-1.1-1.1c-0.6,0-1.1,0.5-1.1,1.1c0,0.6,0.5,1.1,1.1,1.1
					C254.6,288.4,255.1,288,255.1,287.3z"/>
			</g>
			<g>
				<path class="st58" d="M270.4,286.7c-0.2,0-0.3-0.1-0.4-0.3l-6.6-12.8c0-0.1-0.2-0.2-0.3-0.2h-4.3c-0.3,0-0.5-0.2-0.5-0.5
					s0.2-0.5,0.5-0.5h4.3c0.4,0,0.9,0.3,1.1,0.7l6.6,12.8c0.1,0.2,0,0.5-0.2,0.6C270.6,286.6,270.5,286.7,270.4,286.7z"/>
			</g>
			<g>
				<path class="st59" d="M280.6,217.6c0.7,0.6,3.7,1.3,4.2,0.6c0.5-0.6,1-2.7-3.7-2.7C276.5,215.5,280.6,217.6,280.6,217.6z"/>
				<g>
					<path class="st60" d="M265.1,274.9c0,3.1,2.2,5.8,4.9,6c2.7,0.2,6.6,0.6,8.7,0.8c2.1,0.2,4.1,0.4,4.4,0.4
						c0.4,0,0.6-0.3,0.5-0.8c-0.1-0.4,2-0.8,4.6-0.8s4.9-2.5,4.9-5.6v-8.2c0-3.1-2.5-5.5-5.6-5.4l-16.7,0.6
						c-3.1,0.1-5.6,2.7-5.6,5.8L265.1,274.9z"/>
					<path class="st61" d="M265.1,269.1c0,0.3,0.1,0.7,0.1,0.7s2.3-0.9,13.2-0.8c12.8,0.1,14.8,1.3,14.8,1.3v-45.1
						c0-0.6-0.1-1.2-0.2-1.8c-0.9-3.6-4.4-6.3-8-6.2h-12.8c-4.2,0-7,3.8-7,8.3C265,225.5,265,266.3,265.1,269.1z"/>
					<path class="st23" d="M284.3,218.6c0.3-0.3,0.4-0.6,0.4-1v-0.4h-1.4v0.4c0,0-2.1,2.1-5.5,2.1c-3.4,0-3.3-2.1-3.3-2.1v-0.4h-1.4
						v0.4c0,0.3,0.1,1.3,0.9,2.2c0.8,0.9,2.1,1.3,3.8,1.3C281.7,221.1,284.2,218.7,284.3,218.6z"/>
					<g>
						<path class="st59" d="M274.1,246.1c-0.5,0-1-0.4-1-0.9c0-0.1-1.1-6.7-1.6-13.5c-0.9-13,1.3-15.2,2.9-15.7
							c0.6-0.2,1.2,0.1,1.3,0.7c0.2,0.6-0.1,1.2-0.7,1.3c-0.2,0.1-2.3,1.1-1.5,13.5c0.5,6.7,1.6,13.3,1.6,13.3
							c0.1,0.6-0.3,1.1-0.9,1.2C274.2,246.1,274.1,246.1,274.1,246.1z"/>
					</g>
				</g>
				<g>
					<path class="st62" d="M289.7,197.6c-0.2,6.7-5.6,8-8,8c-2,0-0.1-2.8-0.1-3.4c0.1-0.7,0.8-4.5,1.4-4.7
						C283.6,197.2,289.7,197.6,289.7,197.6z"/>
					<path class="st62" d="M283.9,204.2c0.4-0.8,0.6,1.8,0.7,1.4c0.1-5.4,4.5-1.4,5.1-7.3c0.5-5,0.4-5.1,0.5-7.6
						c0.3-4.9-2.3-10.9-12.7-10.8c-5.8,0-8.9,2.2-10.2,5.2c-2.4,5.5,0.8,13.5,0.8,13.5L283.9,204.2z"/>
					<path class="st62" d="M283.4,180.7c0.7-0.6,3.1-0.2,3.1-0.2s-0.8,1.5-1.6,1.5C284.1,182,282.7,181.3,283.4,180.7z"/>
					<path class="st62" d="M283.7,180.8c-0.1-1.2-2.7-2.2-2.7-2.2s0,1.7,1,2.4C282.7,181.6,283.8,181.8,283.7,180.8z"/>
					<path class="st28" d="M274.5,217.6c0,0-0.1,2.1,3.3,2.1c3.4,0,5.5-2.1,5.5-2.1v-10.2l-8.7-0.5V217.6z"/>
					<path class="st29" d="M274.5,215.4c2.3,0.3,8.7-0.5,8.7-2c0-1.5,0.1-8.2,0.1-8.2l-8.7,0.1V215.4z"/>
					<path class="st29" d="M267,201.9c0,2,1.8,6.7,2.8,8c0.5,0.6,1.1,1.9,2.6,2.4c1.3,0.4,2.1,0.7,2.1,1.4c0,0.8,1.7-0.7,2.2-0.7
						c6.7,0,10-7.2,10-12.1l-2.1-6.5c0-5.4-3.6-9.3-8.8-9.2c-5.2,0-9.4,3.6-9.4,9L267,201.9z"/>
					<path class="st28" d="M266.7,201.9c0.2,5.6,1.5,10.9,8.3,10.8c6.9-0.1,8.7-8.3,8.5-13.7l-0.3-4.7c0-7.4-2.9-10.2-8-10.2
						c-6.9,0-8.9,4.4-8.7,9.8L266.7,201.9z"/>
					<path class="st29" d="M273.2,209.3c0.6,0,0.9-0.1,1.3-0.2c0.4-0.1,0.6,0.3,0.3,0.5c-0.4,0.3-1,0.5-1.6,0.4
						c-0.4,0-0.7-0.1-0.9-0.3c-0.4-0.2-0.4-0.7,0-0.6C272.5,209.2,272.9,209.3,273.2,209.3z"/>
					<g>
						<path class="st29" d="M272.5,203.2c-1,0-1.8-0.6-1.8-1.1c0-0.2,0.2-0.5,0.6-0.3c0.2,0.1,0.6,0.2,1.2,0.2
							c0.5,0,0.8-0.1,1.1-0.2c0.6-0.2,0.8,0.1,0.8,0.3C274.4,202.6,273.5,203.2,272.5,203.2z"/>
					</g>
					<path class="st29" d="M283.4,198.5c-0.1,2,0.9,3.7,2.3,3.8s2.7-1.4,2.8-3.4c0.1-2-0.8-4.5-2.6-3.8
						C284.5,194.9,283.5,196.5,283.4,198.5z"/>
					<path class="st45" d="M277.4,197.3c0,0.5-0.4,0.9-0.9,0.9c-0.5,0-0.9-0.4-0.9-0.9s0.4-0.9,0.9-0.9
						C277.1,196.4,277.4,196.8,277.4,197.3z"/>
					<path class="st45" d="M269.8,197.4c0,0.5-0.4,0.9-0.9,0.9c-0.5,0-0.9-0.4-0.9-0.9s0.4-0.9,0.9-0.9
						C269.4,196.6,269.8,196.9,269.8,197.4z"/>
					<g>
						<path class="st63" d="M278.7,196.8C278.6,196.8,278.6,196.8,278.7,196.8c-0.1,0-0.9-0.2-1.8-0.2c-0.6,0-1.2,0.2-1.2,0.2
							c-0.2,0.1-0.4,0-0.4-0.2c-0.1-0.2,0-0.4,0.2-0.4c0,0,0.7-0.2,1.4-0.2c1,0,1.8,0.2,1.9,0.2c0.2,0,0.3,0.2,0.2,0.4
							C278.9,196.7,278.8,196.8,278.7,196.8z"/>
					</g>
					<g>
						<path class="st63" d="M270.5,197c0,0-0.1,0-0.1,0c0,0-0.5-0.2-1.3-0.2c-0.6,0-1.3,0.2-1.3,0.2c-0.2,0-0.3-0.1-0.4-0.2
							c0-0.2,0.1-0.3,0.2-0.4c0,0,0.8-0.2,1.5-0.2c1,0,1.6,0.3,1.6,0.3c0.2,0.1,0.2,0.3,0.2,0.4C270.8,196.9,270.6,197,270.5,197z"
							/>
					</g>
					<g>
						<path class="st62" d="M279,195.1C279,195.1,279,195.1,279,195.1L275,195c-0.3,0-0.5-0.3-0.5-0.5c0-0.3,0.3-0.5,0.5-0.5
							l3.9,0.1c0.3,0,0.5,0.3,0.5,0.5C279.5,194.8,279.3,195.1,279,195.1z"/>
					</g>
					<g>
						<path class="st62" d="M266.8,195.4c-0.3,0-0.5-0.2-0.5-0.5c0-0.3,0.2-0.6,0.5-0.6l3.4-0.2c0.3,0,0.6,0.2,0.6,0.5
							c0,0.3-0.2,0.6-0.5,0.6L266.8,195.4C266.8,195.4,266.8,195.4,266.8,195.4z"/>
					</g>
					<path class="st62" d="M285.5,193.6c0-3-1.4-5.8-3.5-7.6c1-1.3,1.4-3.2,1.2-3.4c-0.4-0.3-6.3-4.5-11.9-1.3
						c-3.8,2.2-4.3,4.4-3.6,5.9c0,0,0,0,0,0.1c0,0,0,0,0,0c0.7-1.6,3.6-2.4,4.8-2.4c4.9,0,3,1.8,6.6,2.1c1.4,0.1,3.6,1,3.6,4.5
						c0,3.8,0.6,7.8,0.7,7.8c1.1,0.1,1.2-0.7,1.2-0.7c0-2,0.3-3.2,1.6-3.8L285.5,193.6z"/>
				</g>
				<g>
					<path class="st64" d="M272.7,206.5c-0.9,0-2.1-0.1-2.9-0.7c-0.2-0.1-0.2-0.3-0.1-0.5c0.1-0.2,0.3-0.2,0.5-0.1
						c0.7,0.5,1.8,0.5,2.5,0.5c1.4,0,2.5-0.2,3-0.5c0.2-0.1,0.4-0.1,0.5,0.1c0.1,0.2,0.1,0.4-0.1,0.5
						C275.3,206.4,273.8,206.5,272.7,206.5z"/>
				</g>
				<g>
					<path class="st65" d="M271.3,278.3C271.3,278.3,271.3,278.3,271.3,278.3C271.3,278.3,271.3,278.3,271.3,278.3z"/>
					<path class="st65" d="M271.3,277.8C271.3,277.8,271.3,277.9,271.3,277.8C271.3,277.9,271.3,277.8,271.3,277.8z"/>
					<path class="st65" d="M271.3,277.4C271.3,277.4,271.3,277.4,271.3,277.4C271.3,277.4,271.3,277.4,271.3,277.4z"/>
					<path class="st65" d="M271.1,279.7C271.2,279.6,271.2,279.6,271.1,279.7C271.2,279.6,271.2,279.6,271.1,279.7z"/>
					<path class="st65" d="M271.2,279.2C271.2,279.1,271.2,279.1,271.2,279.2C271.2,279.1,271.2,279.1,271.2,279.2z"/>
					<path class="st65" d="M271.3,278.7C271.3,278.7,271.3,278.7,271.3,278.7C271.3,278.7,271.3,278.7,271.3,278.7z"/>
				</g>
				<g>
					<path class="st59" d="M272.4,246.1c-0.1,0-0.2,0-0.3-0.1c-0.6-0.2-0.9-0.8-0.7-1.3c0.8-2.5,8.1-24.3,12-28
						c0.4-0.4,1.1-0.4,1.5,0c0.4,0.4,0.4,1.1,0,1.5c-3,2.8-9.3,20.5-11.5,27.1C273.3,245.9,272.9,246.1,272.4,246.1z"/>
				</g>
				<path class="st66" d="M279.9,250c0,0.3-0.2,0.5-0.5,0.5h-10c-0.3,0-0.5-0.2-0.5-0.5v-7.4c0-0.3,0.2-0.5,0.5-0.5h10
					c0.3,0,0.5,0.2,0.5,0.5V250z"/>
				<path class="st23" d="M278.8,248.4c0,0.3-0.2,0.5-0.5,0.5h-10c-0.3,0-0.5-0.2-0.5-0.5v-6.3c0-0.3,0.2-0.5,0.5-0.5h10
					c0.3,0,0.5,0.2,0.5,0.5V248.4z"/>
				<path class="st67" d="M274.5,241.7c0,0.3-0.2,0.5-0.5,0.5h-1.5c-0.3,0-0.5-0.2-0.5-0.5v-2.4c0-0.3,0.2-0.5,0.5-0.5h1.5
					c0.3,0,0.5,0.2,0.5,0.5V241.7z"/>
				<g class="st68">
					<path class="st69" d="M271.8,245.2c0,0.3-0.2,0.5-0.5,0.5h-1.6c-0.3,0-0.5-0.2-0.5-0.5v-1.6c0-0.3,0.2-0.5,0.5-0.5h1.6
						c0.3,0,0.5,0.2,0.5,0.5V245.2z"/>
				</g>
				<path class="st66" d="M280.4,251.8c0,2.1,1.2,3.7,1.2,3.7l11.6,9.5v-12.9L280.4,251.8z"/>
				<path class="st66" d="M286.2,223.3c0,1,2.3,10.6,2.3,11.4c0,2.9,0,16.8,0,16.8s4,0.7,4.6,2v-28.1c0-0.6-0.1-1.2-0.2-1.8
					L286.2,223.3z"/>
			</g>
			<g>
				<path class="st60" d="M261.7,338c0.4,2.4,2.5,3.2,5,3.2c0,0,2.4-2.7,2.5-2.7c2.1,0,3.1-0.8,3.1-0.8s0.1-0.4,0.1-1.8l0.3-30.7
					l3.4-25l-0.6-3.8c0.3-2.8-1.8-5.3-4.6-5.5c-2.8-0.3-5.7,1.4-5.7,4.2l-3.1,29.5l-0.3,31.4C261.7,336.4,261.6,337.7,261.7,338z"/>
				<path class="st70" d="M265.9,338.5c4.2,0.4,5.8-0.4,5.8-0.3c0.3,1.3,0.3,3.9,0.3,4.1c0,0.1-1.5,1.9-1.8,1.7
					c-0.2-0.2-3.5-0.8-3.3-1.1C267,342.5,265.9,338.5,265.9,338.5z"/>
				<path class="st71" d="M272.2,276.3c0,0,1,4.8,3.7,5.2l6.6,0.9c-0.3-0.4-1.8-2.5-1.8-2.5c-1.5-0.2-4.8-0.5-5.8-0.9
					C273.8,278.4,272.7,277.6,272.2,276.3z"/>
			</g>
			<g>
				<path class="st60" d="M291.2,341.7c0.2,0,1.7-4.2,1.9-4.2c2.8-0.4,3.4-1.4,3.3-1.7l-4.4-31.3l-0.9-28.2c-0.1-2.8-2.4-5-5.2-4.9
					c-2.8,0.1-6.6,2.3-6.5,5.1l2,28.9l4.6,31.7C286.3,339.7,288.6,341.7,291.2,341.7z"/>
			</g>
			<g>
				<g>
					<path class="st72" d="M271.9,340.4c0,0,0.3,1.5-2.4,1.4c-2.6-0.1-3.9-3.1-3.9-3.1l-4.2-0.3c0,0-0.3,1.9-0.7,2.3
						c-0.9,1.2-3.3,3.6-3.3,3.6l-4.8,0c0,0-0.4,3.8,1,3.9c1.5,0.1,4.4,0.2,5.6,0.2s7.7-1.3,7.7-1.3s5.5,0.3,5.5,0.2
						C272.6,342.1,271.9,340.4,271.9,340.4z"/>
				</g>
				<polygon class="st72" points="272.6,348.3 265.7,348.4 265.7,347.2 268,346.2 272.7,346 				"/>
				<g>
					<path class="st73" d="M252.2,345.1C252.2,345.1,252.2,345.1,252.2,345.1C252.2,345.1,252.2,345,252.2,345.1
						C252.2,345.1,252.2,345.1,252.2,345.1z"/>
					<path class="st74" d="M271.9,339.4c0,0,0.4,1.6-2.7,1.6c-1.7,0-2.4-1.6-2.6-2.6c-0.1-0.6-0.3-1-1.1-1c-0.6,0-2.3,0-3.3,0
						c-0.8,0-0.8,1-0.8,1l-0.1,1.3c-0.6,0.7-2.3,2.2-3,2.9c-0.5,0.5-1,0.9-1,0.9s-1.2,0-2.5,0c-1.5,0-2.6,0.4-2.6,1.5
						c0,0,0,0.1,0,0.1c0,0.3,0.3,1.6,0.7,1.9c0.2,0.1,0.5,0.2,0.6,0.2c0.7,0,1.6,0.1,2.5,0.1c0.9,0,1.9,0.1,2.5,0.1
						c0.2,0,0.3,0,0.4,0c0,0,0.1,0,0.1,0c0,0,0,0,0.1,0c0,0,0.1,0,0.1,0c0,0,0.1,0,0.1,0c0,0,0.1,0,0.1,0c0,0,0.1,0,0.1,0
						c0,0,0.1,0,0.1,0c0,0,0.1,0,0.1,0c0,0,0,0,0.1,0c0.1,0,0.1,0,0.2,0c0,0,0,0,0.1,0c0.1,0,0.1,0,0.2,0c0,0,0,0,0,0
						c0.1,0,0.2,0,0.2,0c1.2-0.2,2.9-0.5,4.2-0.7c1.3-0.3,2.4-0.5,2.4-0.5s5.7,0.1,5.7,0v0c0-0.2,0-0.5,0-0.7
						C272.8,340.7,271.9,339.4,271.9,339.4z"/>
				</g>
			</g>
			<path class="st28" d="M279.7,249.7c1.6,0,2.2,0,3.2,0c0.4,0,0.8,0,1.1-0.1c0.1,0,0.2-0.1,0.2-0.1c0.1,0,0.1-0.1,0.2-0.1
				c0,0,0,0,0,0c0,0,0,0,0,0c0.1-0.1,0-0.2-0.1-0.2c-0.2-0.1-0.9-0.2-1.8-0.1c-2,0.2-2.3-1.8-1.4-1.8c2.2-0.1,4.3-1,5.8,0.3
				c2.2,1.9,1.6,2.4,3.6,3.5c2.1,2.1-0.6,4.7-2.6,4.7c-1.8,0-3.1,0-4.7,0c-2.5,0-3,0.3-3.8-1.7c-0.2-0.4-0.2-1.1-0.2-1.7
				c0-0.3,0.5-0.4,0.1-0.4C278.3,251.7,278.1,249.7,279.7,249.7z"/>
			<g>
				<g>
					<defs>
						<path id="SVGID_1_" d="M286.8,225.7l-0.1-0.2l0,0c-1.2-1.5-1-3.6,0.5-4.8s3.6-1,4.8,0.5l0.2,0.2L286.8,225.7z"/>
					</defs>
					<clipPath id="SVGID_2_">
						<use xlink:href="#SVGID_1_"  style="overflow:visible;"/>
					</clipPath>
					<g style="clip-path:url(#SVGID_2_);">
						
							<image style="overflow:visible;" width="60" height="64" xlink:href="10675E08.png"  transform="matrix(0.24 0 0 0.24 277.8387 210.5177)">
						</image>
					</g>
				</g>
				
					<image style="overflow:visible;" width="91" height="146" xlink:href="10675E09.png"  transform="matrix(0.24 0 0 0.24 286.4788 221.0777)">
				</image>
				<g>
					<defs>
						<path id="SVGID_3_" d="M288.9,255.9l-0.2,0h0c-1.9,0-3.4-1.5-3.4-3.4c0-1.9,1.5-3.4,3.4-3.4l0.2,0L288.9,255.9z"/>
					</defs>
					<clipPath id="SVGID_4_">
						<use xlink:href="#SVGID_3_"  style="overflow:visible;"/>
					</clipPath>
					<g transform="matrix(1 0 0 1 0 1.525879e-05)" style="clip-path:url(#SVGID_4_);">
						
							<image style="overflow:visible;" width="59" height="30" xlink:href="10675E0F.png"  transform="matrix(0.24 0 0 0.24 274.9587 248.9177)">
						</image>
					</g>
				</g>
			</g>
			<polygon class="st75" points="241.8,321.9 250.9,321.9 247.5,318.8 			"/>
			<path class="st29" d="M257.7,272c0,1.5-0.4,4.2,2.8,4.2c3.2,0,3.4-1.9,3.4-4.1c0-0.7,0.1-1.9-0.4-1.9c-1.3-0.2-4.4-0.2-5.3-0.1
				C257.6,270,257.7,271.3,257.7,272z"/>
			<path class="st72" d="M278.2,345.5c-0.6,0.6-0.4,3,0.5,3c0.7,0,4.2,0,5.6,0c2.2,0,4.8-0.6,6.9-1.4c1.2-0.4,3.3-1,3.3-1
				s3.1-0.8,3.3-0.9c0.2-0.1,0.1-1.4,0.1-1.4s-7.3-1-7.6-0.9c-0.3,0.1-6.1,3.3-6.1,3.3l-5.6-1.4L278.2,345.5z"/>
			<polygon class="st72" points="298,346 292.5,347.7 290.9,347.1 291.8,345.9 292.7,345.1 297.8,343.9 			"/>
			<g>
				<path class="st70" d="M290.9,337.6c4.3-0.1,5.1-1.2,5.1-1.1c0.5,1.2,0.8,3.9,0.8,4c0,0.1-1.3,2-1.5,1.9
					c-0.3-0.2-3.5-0.4-3.5-0.6C291.9,341.5,290.9,337.6,290.9,337.6z"/>
				<path class="st74" d="M297.9,343.8C297.9,343.8,297.9,343.8,297.9,343.8L297.9,343.8c0,0-1,0.3-2.1,0.6
					c-1.2,0.4-2.5,0.7-3.3,1.1c-1.6,0.8-6.8,1.8-7.5,1.8h-6.5c-0.6,0-0.9-1.2-0.8-2.2c0-0.7,0.7-1.3,1.6-1.6c1.3-0.4,3.4-1,4.1-1.2
					c0.2,0,0.3-0.1,0.3-0.1c0.1-0.1,0.3-0.4,0.6-0.7c0,0,0,0,0,0c0.5-0.6,1-1.5,1.4-2.3c0,0,0.2-0.8,0.4-1.5c0.1-0.5,0.2-0.8,1-0.9
					c1-0.1,2.7-0.1,3-0.1c0.5,0,0.9,0.4,1.2,0.9c0.3,0.7,1,1.5,2.5,1.6c3.4,0.2,2.5-1.9,2.5-2c0,0.1,0.7,0.9,1.2,3.5
					C297.6,341.5,297.7,342.4,297.9,343.8z"/>
			</g>
			<path class="st60" d="M290.3,271.2c2.5,0.4,2.8,0.1,2.8,2.7c0,1.2,0,2.4-0.3,3.9c-0.2,1.2-1.5,5-1.4,7.3c0,1.7-2-2.4-2.2-3.3
				c-0.1-0.9-1-2.4-1.1-3.8c0-1.4,0.2-5.8,0.2-5.8L290.3,271.2z"/>
			<path class="st71" d="M265.1,269.8c0,0,2.3-0.9,13.2-0.8c12.8,0.1,14.8,1.3,14.8,1.3v1.2c0,0-2-1.2-14.8-1.3
				c-10.9-0.1-13.2,0.8-13.2,0.8V269.8z"/>
			<path class="st76" d="M265,245.2c0-2.5,0-5,0-7.3C265,240.2,265,242.7,265,245.2z"/>
			<g>
				<path class="st77" d="M254.1,287.2c0,0-0.1,0-0.1,0c-0.3-0.1-0.4-0.3-0.3-0.6l3.6-13.3c0.1-0.5,0.6-0.8,1-0.8h0.5
					c0.3,0,0.5,0.2,0.5,0.5s-0.2,0.5-0.5,0.5h-0.5c0,0-0.1,0.1-0.1,0.1l-3.6,13.3C254.5,287,254.3,287.2,254.1,287.2z"/>
			</g>
			<path class="st78" d="M254.8,344.4c0-0.4-1.8-0.5-1.7,0C253.1,344.8,254.8,344.8,254.8,344.4z"/>
			<path class="st79" d="M288.1,342.7c-0.8-0.2-1.7-0.3-4.8-0.3c0.2,0,0.3-0.1,0.3-0.1c0.1-0.1,0.3-0.4,0.6-0.7c0,0,0,0,0,0
				C287.4,341.6,289.5,343.1,288.1,342.7z"/>
			<path class="st62" d="M276.5,184.4c-1.1,0.1-3.4,0.3-5.5,0.5c-0.9,0.1-1.6,0.2-2,0.7c-1.3,1.8-0.4,5-0.4,5s1.2-0.7,4.8-1
				c3.8-0.4,5.7-1.7,6.3-3.9C280.1,184.8,276.5,184.4,276.5,184.4z"/>
			<path class="st31" d="M352.7,268.9c0-0.5,0-1,0-1.9C352.7,267.6,352.7,268.3,352.7,268.9z"/>
		</g>
	</g>
</g>
</svg>
